<?xml version="1.0" encoding="utf-8" standalone="no"?>
<!DOCTYPE svg PUBLIC "-//W3C//DTD SVG 1.1//EN"
  "http://www.w3.org/Graphics/SVG/1.1/DTD/svg11.dtd">
<svg xmlns:xlink="http://www.w3.org/1999/xlink" width="864pt" height="201.6pt" viewBox="0 0 864 201.6" xmlns="http://www.w3.org/2000/svg" version="1.1">
 <metadata>
  <rdf:RDF xmlns:dc="http://purl.org/dc/elements/1.1/" xmlns:cc="http://creativecommons.org/ns#" xmlns:rdf="http://www.w3.org/1999/02/22-rdf-syntax-ns#">
   <cc:Work>
    <dc:type rdf:resource="http://purl.org/dc/dcmitype/StillImage"/>
    <dc:date>2026-05-17T19:26:27.402867</dc:date>
    <dc:format>image/svg+xml</dc:format>
    <dc:creator>
     <cc:Agent>
      <dc:title>Matplotlib v3.10.8, https://matplotlib.org/</dc:title>
     </cc:Agent>
    </dc:creator>
   </cc:Work>
  </rdf:RDF>
 </metadata>
 <defs>
  <style type="text/css">*{stroke-linejoin: round; stroke-linecap: butt}</style>
 </defs>
 <g id="figure_1">
  <g id="patch_1">
   <path d="M 0 201.6 
L 864 201.6 
L 864 0 
L 0 0 
z
" style="fill: #ffffff"/>
  </g>
  <g id="axes_1">
   <g id="patch_2">
    <path d="M 64.8 145.152 
L 851.04 145.152 
L 851.04 10.08 
L 64.8 10.08 
z
" style="fill: #ffffff"/>
   </g>
   <g id="patch_3">
    <path d="M 127.6992 145.152 
L 803.8656 145.152 
L 803.8656 10.08 
L 127.6992 10.08 
z
" clip-path="url(#p0580e6a352)" style="fill: #f5f5f5; stroke: #f5f5f5; stroke-linejoin: miter"/>
   </g>
   <g id="patch_4">
    <path d="M 273.1536 145.152 
L 339.984 145.152 
L 339.984 10.08 
L 273.1536 10.08 
z
" clip-path="url(#p0580e6a352)" style="fill: #fdecec; stroke: #fdecec; stroke-linejoin: miter"/>
   </g>
   <g id="patch_5">
    <path d="M 273.1536 139.144511 
L 339.984 139.144511 
L 339.984 39.116197 
L 273.1536 39.116197 
L 273.1536 139.144511 
z
" clip-path="url(#p0580e6a352)" style="fill: none; stroke: #e53935; stroke-width: 1.6; stroke-linejoin: miter"/>
   </g>
   <g id="patch_6">
    <path d="M 127.6992 33.108708 
L 210.2544 33.108708 
L 210.2544 25.098723 
L 127.6992 25.098723 
z
" clip-path="url(#p0580e6a352)" style="fill: #eceff1; stroke: #ffffff; stroke-width: 0.6; stroke-linejoin: miter"/>
   </g>
   <g id="patch_7">
    <path d="M 210.2544 33.108708 
L 339.984 33.108708 
L 339.984 25.098723 
L 210.2544 25.098723 
z
" clip-path="url(#p0580e6a352)" style="fill: #eceff1; stroke: #ffffff; stroke-width: 0.6; stroke-linejoin: miter"/>
   </g>
   <g id="patch_8">
    <path d="M 339.984 33.108708 
L 430.4016 33.108708 
L 430.4016 25.098723 
L 339.984 25.098723 
z
" clip-path="url(#p0580e6a352)" style="fill: #eceff1; stroke: #ffffff; stroke-width: 0.6; stroke-linejoin: miter"/>
   </g>
   <g id="patch_9">
    <path d="M 430.4016 33.108708 
L 552.2688 33.108708 
L 552.2688 25.098723 
L 430.4016 25.098723 
z
" clip-path="url(#p0580e6a352)" style="fill: #eceff1; stroke: #ffffff; stroke-width: 0.6; stroke-linejoin: miter"/>
   </g>
   <g id="patch_10">
    <path d="M 552.2688 33.108708 
L 803.8656 33.108708 
L 803.8656 25.098723 
L 552.2688 25.098723 
z
" clip-path="url(#p0580e6a352)" style="fill: #eceff1; stroke: #ffffff; stroke-width: 0.6; stroke-linejoin: miter"/>
   </g>
   <g id="matplotlib.axis_1">
    <g id="xtick_1">
     <g id="line2d_1">
      <defs>
       <path id="mf8fa859b04" d="M 0 0 
L 0 3.5 
" style="stroke: #000000; stroke-width: 0.8"/>
      </defs>
      <g>
       <use xlink:href="#mf8fa859b04" x="64.8" y="145.152" style="stroke: #000000; stroke-width: 0.8"/>
      </g>
     </g>
     <g id="text_1">
      <text style="font-size: 10.5px; font-family: 'SunTimes', serif; text-anchor: middle" x="64.8" y="159.452781" transform="rotate(-0 64.8 159.452781)">0</text>
     </g>
    </g>
    <g id="xtick_2">
     <g id="line2d_2">
      <g>
       <use xlink:href="#mf8fa859b04" x="222.048" y="145.152" style="stroke: #000000; stroke-width: 0.8"/>
      </g>
     </g>
     <g id="text_2">
      <text style="font-size: 10.5px; font-family: 'SunTimes', serif; text-anchor: middle" x="222.048" y="159.452781" transform="rotate(-0 222.048 159.452781)">200</text>
     </g>
    </g>
    <g id="xtick_3">
     <g id="line2d_3">
      <g>
       <use xlink:href="#mf8fa859b04" x="379.296" y="145.152" style="stroke: #000000; stroke-width: 0.8"/>
      </g>
     </g>
     <g id="text_3">
      <text style="font-size: 10.5px; font-family: 'SunTimes', serif; text-anchor: middle" x="379.296" y="159.452781" transform="rotate(-0 379.296 159.452781)">400</text>
     </g>
    </g>
    <g id="xtick_4">
     <g id="line2d_4">
      <g>
       <use xlink:href="#mf8fa859b04" x="536.544" y="145.152" style="stroke: #000000; stroke-width: 0.8"/>
      </g>
     </g>
     <g id="text_4">
      <text style="font-size: 10.5px; font-family: 'SunTimes', serif; text-anchor: middle" x="536.544" y="159.452781" transform="rotate(-0 536.544 159.452781)">600</text>
     </g>
    </g>
    <g id="xtick_5">
     <g id="line2d_5">
      <g>
       <use xlink:href="#mf8fa859b04" x="693.792" y="145.152" style="stroke: #000000; stroke-width: 0.8"/>
      </g>
     </g>
     <g id="text_5">
      <text style="font-size: 10.5px; font-family: 'SunTimes', serif; text-anchor: middle" x="693.792" y="159.452781" transform="rotate(-0 693.792 159.452781)">800</text>
     </g>
    </g>
    <g id="xtick_6">
     <g id="line2d_6">
      <g>
       <use xlink:href="#mf8fa859b04" x="851.04" y="145.152" style="stroke: #000000; stroke-width: 0.8"/>
      </g>
     </g>
     <g id="text_6">
      <text style="font-size: 10.5px; font-family: 'SunTimes', serif; text-anchor: middle" x="851.04" y="159.452781" transform="rotate(-0 851.04 159.452781)">1000</text>
     </g>
    </g>
    <g id="text_7">
     <text style="font-size: 10.5px; font-family: 'SunTimes', serif; text-anchor: middle" x="457.92" y="173.2145" transform="rotate(-0 457.92 173.2145)">采样点</text>
    </g>
   </g>
   <g id="matplotlib.axis_2">
    <g id="ytick_1">
     <g id="line2d_7">
      <path d="M 64.8 121.681218 
L 851.04 121.681218 
" clip-path="url(#p0580e6a352)" style="fill: none; stroke: #e0e0e0; stroke-opacity: 0.6; stroke-width: 0.5; stroke-linecap: square"/>
     </g>
     <g id="line2d_8">
      <defs>
       <path id="me3c16eb2f5" d="M 0 0 
L -3.5 0 
" style="stroke: #000000; stroke-width: 0.8"/>
      </defs>
      <g>
       <use xlink:href="#me3c16eb2f5" x="64.8" y="121.681218" style="stroke: #000000; stroke-width: 0.8"/>
      </g>
     </g>
     <g id="text_8">
      <text style="font-size: 10.5px; font-family: 'SunTimes', serif; text-anchor: end" x="57.8" y="125.331608" transform="rotate(-0 57.8 125.331608)">0.0</text>
     </g>
    </g>
    <g id="ytick_2">
     <g id="line2d_9">
      <path d="M 64.8 96.650014 
L 851.04 96.650014 
" clip-path="url(#p0580e6a352)" style="fill: none; stroke: #e0e0e0; stroke-opacity: 0.6; stroke-width: 0.5; stroke-linecap: square"/>
     </g>
     <g id="line2d_10">
      <g>
       <use xlink:href="#me3c16eb2f5" x="64.8" y="96.650014" style="stroke: #000000; stroke-width: 0.8"/>
      </g>
     </g>
     <g id="text_9">
      <text style="font-size: 10.5px; font-family: 'SunTimes', serif; text-anchor: end" x="57.8" y="100.300404" transform="rotate(-0 57.8 100.300404)">0.5</text>
     </g>
    </g>
    <g id="ytick_3">
     <g id="line2d_11">
      <path d="M 64.8 71.618809 
L 851.04 71.618809 
" clip-path="url(#p0580e6a352)" style="fill: none; stroke: #e0e0e0; stroke-opacity: 0.6; stroke-width: 0.5; stroke-linecap: square"/>
     </g>
     <g id="line2d_12">
      <g>
       <use xlink:href="#me3c16eb2f5" x="64.8" y="71.618809" style="stroke: #000000; stroke-width: 0.8"/>
      </g>
     </g>
     <g id="text_10">
      <text style="font-size: 10.5px; font-family: 'SunTimes', serif; text-anchor: end" x="57.8" y="75.2692" transform="rotate(-0 57.8 75.2692)">1.0</text>
     </g>
    </g>
    <g id="ytick_4">
     <g id="line2d_13">
      <path d="M 64.8 46.587605 
L 851.04 46.587605 
" clip-path="url(#p0580e6a352)" style="fill: none; stroke: #e0e0e0; stroke-opacity: 0.6; stroke-width: 0.5; stroke-linecap: square"/>
     </g>
     <g id="line2d_14">
      <g>
       <use xlink:href="#me3c16eb2f5" x="64.8" y="46.587605" style="stroke: #000000; stroke-width: 0.8"/>
      </g>
     </g>
     <g id="text_11">
      <text style="font-size: 10.5px; font-family: 'SunTimes', serif; text-anchor: end" x="57.8" y="50.237996" transform="rotate(-0 57.8 50.237996)">1.5</text>
     </g>
    </g>
    <g id="ytick_5">
     <g id="line2d_15">
      <path d="M 64.8 21.556401 
L 851.04 21.556401 
" clip-path="url(#p0580e6a352)" style="fill: none; stroke: #e0e0e0; stroke-opacity: 0.6; stroke-width: 0.5; stroke-linecap: square"/>
     </g>
     <g id="line2d_16">
      <g>
       <use xlink:href="#me3c16eb2f5" x="64.8" y="21.556401" style="stroke: #000000; stroke-width: 0.8"/>
      </g>
     </g>
     <g id="text_12">
      <text style="font-size: 10.5px; font-family: 'SunTimes', serif; text-anchor: end" x="57.8" y="25.206791" transform="rotate(-0 57.8 25.206791)">2.0</text>
     </g>
    </g>
    <g id="text_13">
     <text style="font-size: 10.5px; font-family: 'SunTimes', serif; text-anchor: middle" x="38.428984" y="77.616" transform="rotate(-90 38.428984 77.616)">归一化功耗</text>
    </g>
   </g>
   <g id="line2d_17">
    <path d="M 64.8 122.102869 
L 65.58624 122.352751 
L 66.37248 121.090836 
L 67.94496 119.824369 
L 68.7312 119.579759 
L 69.51744 120.387803 
L 70.30368 118.981025 
L 71.08992 117.31218 
L 71.87616 117.121261 
L 72.6624 116.516992 
L 73.44864 118.368421 
L 74.23488 117.307282 
L 75.02112 117.156878 
L 75.80736 116.102141 
L 76.5936 116.395652 
L 77.37984 118.519364 
L 78.16608 117.814577 
L 78.95232 117.896148 
L 79.73856 118.245798 
L 80.5248 119.680187 
L 81.31104 118.654402 
L 82.09728 119.464447 
L 82.88352 121.344675 
L 83.66976 120.955516 
L 84.456 122.327722 
L 85.24224 122.715815 
L 86.02848 123.459333 
L 86.81472 123.127339 
L 87.60096 120.522672 
L 88.3872 121.445241 
L 89.17344 121.190207 
L 89.95968 119.478843 
L 90.74592 119.018227 
L 91.53216 120.342541 
L 92.3184 119.459323 
L 93.10464 116.795284 
L 93.89088 116.824793 
L 94.67712 115.783592 
L 95.46336 113.564781 
L 96.2496 113.157882 
L 97.03584 113.328763 
L 97.82208 113.293386 
L 98.60832 113.05718 
L 99.39456 113.101936 
L 100.1808 113.771785 
L 100.96704 115.000019 
L 101.75328 114.712541 
L 102.53952 117.314326 
L 103.32576 118.340288 
L 104.112 117.362577 
L 104.89824 119.294161 
L 105.68448 120.713323 
L 106.47072 120.343802 
L 107.25696 120.749423 
L 108.0432 122.039583 
L 110.40192 123.511477 
L 111.18816 123.092491 
L 111.9744 123.729059 
L 112.76064 122.447525 
L 113.54688 123.01144 
L 114.33312 124.002885 
L 115.11936 123.764504 
L 115.9056 124.27832 
L 117.47808 125.052171 
L 119.05056 124.028176 
L 119.8368 123.971367 
L 120.62304 122.879157 
L 121.40928 122.205247 
L 122.19552 121.888231 
L 123.768 120.401801 
L 124.55424 119.208981 
L 125.34048 119.559653 
L 126.12672 118.269428 
L 126.91296 117.353246 
L 127.6992 117.694329 
L 128.48544 116.004807 
L 129.27168 116.26797 
L 130.05792 115.841892 
L 130.84416 114.968143 
L 131.6304 115.535148 
L 132.41664 116.951557 
L 133.20288 117.54929 
L 133.98912 118.451811 
L 134.77536 119.533577 
L 135.5616 118.701266 
L 136.34784 119.12975 
L 137.13408 121.115588 
L 137.92032 122.005287 
L 138.70656 123.969499 
L 140.27904 125.294184 
L 141.06528 127.572749 
L 141.85152 126.643414 
L 142.63776 125.190794 
L 143.424 124.707216 
L 144.21024 122.250408 
L 144.99648 122.40036 
L 145.78272 120.979584 
L 146.56896 121.103071 
L 147.3552 119.458286 
L 148.14144 117.501106 
L 148.92768 114.874525 
L 150.50016 110.835431 
L 151.2864 107.660101 
L 152.07264 105.292694 
L 153.64512 99.562372 
L 154.43136 98.288063 
L 155.2176 94.446011 
L 156.00384 93.628464 
L 158.36256 86.989434 
L 159.1488 87.228463 
L 159.93504 85.726484 
L 160.72128 85.95775 
L 161.50752 86.611854 
L 162.29376 87.794893 
L 164.65248 94.889616 
L 165.43872 97.902255 
L 166.22496 99.121821 
L 167.0112 100.742997 
L 167.79744 104.389625 
L 169.36992 108.999165 
L 170.15616 111.687242 
L 170.9424 112.652285 
L 171.72864 114.30221 
L 172.51488 116.252708 
L 173.30112 116.86762 
L 174.08736 116.817512 
L 174.8736 118.048549 
L 175.65984 117.660727 
L 176.44608 117.964624 
L 177.23232 117.699363 
L 178.01856 115.396842 
L 178.8048 114.99241 
L 179.59104 113.535871 
L 181.16352 110.242911 
L 181.94976 107.641412 
L 182.736 103.866692 
L 183.52224 100.640529 
L 184.30848 99.319023 
L 185.09472 96.673539 
L 186.6672 93.160897 
L 187.45344 92.44553 
L 188.23968 92.348582 
L 189.02592 90.145712 
L 190.5984 86.763358 
L 191.38464 85.696998 
L 192.17088 84.059893 
L 192.95712 83.262319 
L 193.74336 83.978603 
L 195.31584 81.409206 
L 196.10208 81.698615 
L 196.88832 79.925677 
L 197.67456 77.684369 
L 198.4608 76.86955 
L 199.24704 77.232394 
L 200.03328 77.426737 
L 200.81952 79.358036 
L 201.60576 78.77946 
L 202.392 81.89737 
L 203.17824 83.908428 
L 203.96448 84.934902 
L 204.75072 84.464238 
L 205.53696 86.608842 
L 206.3232 88.317079 
L 207.10944 90.405563 
L 207.89568 92.858741 
L 208.68192 92.939352 
L 209.46816 95.378394 
L 210.2544 96.078901 
L 211.04064 95.527525 
L 211.82688 98.391243 
L 212.61312 98.506683 
L 213.39936 99.810114 
L 214.1856 99.657397 
L 214.97184 101.270449 
L 215.75808 102.410698 
L 216.54432 101.510648 
L 217.33056 101.651211 
L 218.1168 102.706822 
L 218.90304 103.368372 
L 219.68928 102.985845 
L 221.26176 105.678184 
L 222.048 105.381958 
L 222.83424 106.45252 
L 223.62048 106.927954 
L 224.40672 109.382903 
L 225.19296 109.473352 
L 225.9792 108.105776 
L 226.76544 107.404464 
L 227.55168 109.202361 
L 228.33792 108.338741 
L 229.12416 109.199368 
L 229.9104 108.908123 
L 230.69664 107.943506 
L 231.48288 107.476074 
L 232.26912 104.833794 
L 233.8416 101.126258 
L 234.62784 97.830772 
L 235.41408 96.363873 
L 236.20032 95.302248 
L 236.98656 95.19931 
L 237.7728 91.742842 
L 238.55904 89.705345 
L 239.34528 86.587743 
L 240.91776 81.468118 
L 241.704 80.184373 
L 242.49024 79.518185 
L 243.27648 76.948903 
L 244.06272 75.330255 
L 245.6352 73.632639 
L 246.42144 73.171576 
L 247.20768 73.463114 
L 247.99392 73.533908 
L 250.35264 76.421934 
L 251.13888 79.409485 
L 251.92512 81.001952 
L 252.71136 83.598139 
L 253.4976 85.544819 
L 254.28384 89.005199 
L 255.07008 91.823632 
L 255.85632 94.044848 
L 256.64256 97.153539 
L 257.4288 97.414566 
L 258.21504 99.865274 
L 259.00128 101.220715 
L 259.78752 104.422768 
L 260.57376 105.21387 
L 262.14624 106.034959 
L 262.93248 107.054273 
L 263.71872 108.685021 
L 264.50496 107.591208 
L 265.2912 108.143107 
L 266.07744 109.615924 
L 266.86368 109.905994 
L 267.64992 111.270814 
L 268.43616 111.86061 
L 269.2224 114.06938 
L 270.00864 112.838757 
L 270.79488 114.713817 
L 271.58112 115.501887 
L 272.36736 115.922694 
L 273.1536 115.833584 
L 273.93984 117.414217 
L 274.72608 119.269347 
L 275.51232 117.487326 
L 276.29856 116.361644 
L 277.0848 115.013701 
L 277.87104 115.338067 
L 278.65728 114.497633 
L 279.44352 113.295953 
L 280.22976 114.256605 
L 281.016 114.679485 
L 282.58848 113.64727 
L 283.37472 115.162203 
L 284.9472 111.916206 
L 285.73344 113.206474 
L 286.51968 112.176305 
L 287.30592 111.910251 
L 288.8784 107.323426 
L 289.66464 104.389231 
L 290.45088 102.226255 
L 291.23712 97.421388 
L 292.8096 91.930271 
L 294.38208 82.093442 
L 295.16832 77.752534 
L 296.7408 70.891444 
L 297.52704 66.246458 
L 299.88576 58.036458 
L 300.672 54.271526 
L 302.24448 49.305785 
L 303.03072 47.66061 
L 304.6032 47.126182 
L 305.38944 48.934499 
L 306.17568 48.454468 
L 306.96192 49.55932 
L 308.5344 53.424225 
L 309.32064 55.850756 
L 311.67936 66.479488 
L 312.4656 70.49984 
L 314.82432 77.853545 
L 315.61056 79.045538 
L 317.96928 91.038775 
L 319.54176 96.622877 
L 320.328 98.590146 
L 321.11424 100.131295 
L 321.90048 103.766521 
L 322.68672 104.525957 
L 323.47296 104.540608 
L 324.2592 104.88825 
L 325.04544 106.164491 
L 325.83168 106.99368 
L 326.61792 107.204691 
L 327.40416 106.37811 
L 328.1904 104.363715 
L 328.97664 103.428817 
L 329.76288 101.995109 
L 330.54912 101.180921 
L 331.33536 100.078977 
L 332.1216 97.60218 
L 332.90784 96.716072 
L 333.69408 98.122552 
L 334.48032 98.902709 
L 335.26656 97.201512 
L 336.0528 97.139791 
L 336.83904 95.195992 
L 337.62528 94.438515 
L 338.41152 96.357681 
L 339.19776 96.693363 
L 339.984 98.200531 
L 340.77024 99.102141 
L 341.55648 99.277778 
L 342.34272 99.885662 
L 343.12896 100.829344 
L 343.9152 100.117565 
L 344.70144 99.797253 
L 345.48768 100.348491 
L 346.27392 99.298887 
L 347.06016 99.344318 
L 350.99136 91.532047 
L 352.56384 89.31267 
L 353.35008 86.251721 
L 354.92256 82.877828 
L 355.7088 82.705621 
L 356.49504 82.282859 
L 357.28128 80.928283 
L 358.06752 81.881803 
L 358.85376 81.01278 
L 359.64 82.335415 
L 361.21248 80.84751 
L 362.78496 80.75656 
L 363.5712 84.071676 
L 364.35744 85.966908 
L 365.92992 87.444522 
L 366.71616 89.837654 
L 367.5024 93.208387 
L 368.28864 94.284939 
L 369.07488 97.148458 
L 369.86112 98.198193 
L 370.64736 101.047046 
L 371.4336 103.466477 
L 372.21984 105.429192 
L 373.00608 107.84996 
L 373.79232 108.010979 
L 374.57856 109.293255 
L 375.3648 109.939795 
L 376.15104 111.427445 
L 376.93728 111.0664 
L 378.50976 113.977589 
L 379.296 114.485452 
L 380.08224 115.205392 
L 380.86848 116.299826 
L 381.65472 116.68847 
L 383.2272 115.276479 
L 384.01344 114.922611 
L 384.79968 113.651226 
L 385.58592 114.996886 
L 386.37216 113.942878 
L 387.1584 114.087113 
L 387.94464 111.702954 
L 388.73088 111.167979 
L 389.51712 110.244434 
L 391.0896 106.997428 
L 391.87584 106.846227 
L 392.66208 108.495839 
L 393.44832 107.987874 
L 395.0208 107.368049 
L 396.59328 105.541629 
L 398.16576 104.599538 
L 398.952 103.322546 
L 399.73824 102.906187 
L 400.52448 103.098597 
L 402.09696 100.361338 
L 402.8832 99.339239 
L 403.66944 98.800919 
L 404.45568 98.893929 
L 405.24192 98.471925 
L 406.02816 97.07913 
L 406.8144 96.797255 
L 407.60064 96.712966 
L 408.38688 97.001495 
L 409.17312 97.517677 
L 409.95936 96.389511 
L 410.7456 94.559278 
L 411.53184 94.70388 
L 413.89056 91.607163 
L 414.6768 88.589126 
L 415.46304 87.232917 
L 416.24928 85.594201 
L 417.03552 84.459668 
L 417.82176 82.830309 
L 419.39424 76.895868 
L 420.18048 77.348022 
L 420.96672 77.275668 
L 421.75296 76.423435 
L 422.5392 76.231273 
L 423.32544 75.081669 
L 424.11168 74.334966 
L 426.4704 78.196734 
L 427.25664 79.972124 
L 428.04288 80.419131 
L 428.82912 82.93811 
L 429.61536 84.022542 
L 430.4016 84.151796 
L 433.54656 90.456488 
L 435.11904 92.502537 
L 435.90528 93.231135 
L 436.69152 95.095698 
L 437.47776 95.409209 
L 439.05024 99.395219 
L 439.83648 101.8309 
L 440.62272 102.454315 
L 442.1952 100.058397 
L 442.98144 100.52965 
L 443.76768 100.870268 
L 444.55392 102.49025 
L 446.1264 104.310307 
L 446.91264 103.705116 
L 447.69888 105.916123 
L 448.48512 105.162526 
L 449.27136 104.814818 
L 450.0576 105.623954 
L 450.84384 107.043613 
L 451.63008 109.604867 
L 452.41632 110.493754 
L 453.20256 112.211448 
L 453.9888 112.137141 
L 454.77504 113.558383 
L 455.56128 113.746654 
L 456.34752 115.025007 
L 457.13376 115.60299 
L 457.92 115.029837 
L 458.70624 117.057559 
L 459.49248 116.573789 
L 460.27872 116.523313 
L 461.06496 117.653173 
L 461.8512 118.402984 
L 462.63744 120.758064 
L 463.42368 121.451893 
L 464.20992 121.963444 
L 464.99616 121.328664 
L 465.7824 122.658216 
L 466.56864 121.712233 
L 467.35488 123.243246 
L 468.14112 122.86326 
L 468.92736 121.584545 
L 469.7136 121.091726 
L 470.49984 121.802744 
L 472.07232 116.732236 
L 473.6448 110.336181 
L 474.43104 109.402284 
L 475.21728 108.035366 
L 476.78976 106.526406 
L 477.576 104.661084 
L 478.36224 104.323263 
L 479.14848 104.30088 
L 479.93472 104.047302 
L 480.72096 102.054617 
L 481.5072 101.24818 
L 482.29344 102.172171 
L 483.07968 101.82595 
L 483.86592 101.880704 
L 484.65216 101.548912 
L 485.4384 100.755148 
L 486.22464 98.872646 
L 487.01088 97.364715 
L 487.79712 96.505332 
L 489.3696 93.293389 
L 490.15584 92.584455 
L 490.94208 90.499106 
L 491.72832 89.982026 
L 493.3008 89.415175 
L 494.08704 88.45871 
L 495.65952 84.619187 
L 496.44576 81.880109 
L 497.232 81.789825 
L 498.80448 79.352453 
L 500.37696 80.278948 
L 501.1632 81.716845 
L 501.94944 81.238037 
L 503.52192 79.175122 
L 504.30816 79.52408 
L 505.0944 79.614445 
L 506.66688 81.921338 
L 507.45312 84.095124 
L 508.23936 85.110649 
L 509.0256 87.190717 
L 509.81184 87.138244 
L 510.59808 86.902186 
L 511.38432 87.598053 
L 512.17056 90.1675 
L 512.9568 90.504207 
L 513.74304 92.968139 
L 514.52928 93.826417 
L 515.31552 95.685717 
L 516.10176 96.118853 
L 516.888 99.18963 
L 517.67424 99.878404 
L 518.46048 102.023034 
L 519.24672 102.466776 
L 521.60544 108.648206 
L 522.39168 108.664261 
L 523.17792 110.496594 
L 523.96416 111.645975 
L 524.7504 112.300887 
L 525.53664 113.483364 
L 526.32288 115.036127 
L 527.10912 113.154237 
L 527.89536 111.595734 
L 528.6816 111.311076 
L 529.46784 111.639053 
L 530.25408 111.128547 
L 531.82656 108.623813 
L 532.6128 108.117603 
L 533.39904 108.69005 
L 534.18528 107.131592 
L 534.97152 105.843298 
L 535.75776 105.883487 
L 536.544 106.622642 
L 537.33024 109.132194 
L 538.11648 109.291666 
L 538.90272 108.816466 
L 539.68896 108.119642 
L 540.4752 109.248655 
L 541.26144 108.406185 
L 542.04768 107.963585 
L 542.83392 107.385755 
L 543.62016 104.963091 
L 545.19264 107.067128 
L 545.97888 106.950355 
L 546.76512 106.411069 
L 547.55136 104.461753 
L 548.3376 104.868075 
L 549.12384 104.388653 
L 549.91008 104.212386 
L 550.69632 101.276108 
L 551.48256 100.180307 
L 552.2688 98.790793 
L 553.84128 97.041088 
L 554.62752 95.276337 
L 555.41376 95.171205 
L 556.2 92.493014 
L 556.98624 90.767692 
L 557.77248 89.336504 
L 558.55872 89.753635 
L 559.34496 87.906557 
L 560.1312 86.534155 
L 561.70368 85.626344 
L 562.48992 84.082425 
L 563.27616 83.166403 
L 564.0624 82.859454 
L 564.84864 83.100878 
L 565.63488 82.593811 
L 566.42112 84.476731 
L 567.20736 83.447482 
L 567.9936 84.715982 
L 568.77984 83.167203 
L 569.56608 84.453458 
L 570.35232 84.781226 
L 571.9248 87.547804 
L 572.71104 88.179838 
L 573.49728 90.116561 
L 574.28352 90.140146 
L 575.06976 89.912923 
L 575.856 90.448735 
L 576.64224 89.926047 
L 577.42848 91.950265 
L 579.00096 93.545923 
L 579.7872 94.607808 
L 580.57344 95.907935 
L 581.35968 96.384328 
L 582.93216 98.283191 
L 583.7184 98.495518 
L 585.29088 99.507064 
L 586.07712 99.776344 
L 587.6496 101.232155 
L 589.22208 101.266393 
L 590.00832 101.476165 
L 590.79456 101.163569 
L 592.36704 101.608157 
L 593.15328 103.207546 
L 593.93952 103.574398 
L 594.72576 105.669851 
L 595.512 106.745031 
L 597.08448 106.325526 
L 597.87072 105.775789 
L 598.65696 107.638481 
L 599.4432 108.048711 
L 600.22944 108.853494 
L 601.80192 111.681842 
L 602.58816 110.963657 
L 603.3744 112.16831 
L 604.16064 113.010626 
L 604.94688 113.194261 
L 605.73312 113.647013 
L 606.51936 115.111896 
L 607.3056 115.538805 
L 608.09184 115.343883 
L 608.87808 114.768587 
L 609.66432 114.763803 
L 610.45056 115.480713 
L 611.2368 114.955147 
L 612.02304 112.980178 
L 612.80928 113.279404 
L 613.59552 112.120452 
L 615.168 110.373262 
L 615.95424 109.108929 
L 616.74048 106.871381 
L 617.52672 105.651598 
L 618.31296 105.285034 
L 619.0992 104.097713 
L 619.88544 102.013242 
L 620.67168 98.665315 
L 621.45792 96.997874 
L 622.24416 95.608447 
L 623.0304 93.942978 
L 623.81664 89.908083 
L 624.60288 87.487265 
L 625.38912 86.381949 
L 626.17536 86.26631 
L 626.9616 86.287333 
L 627.74784 85.95196 
L 628.53408 85.48082 
L 629.32032 84.509586 
L 630.10656 84.595285 
L 630.8928 85.141711 
L 631.67904 84.319159 
L 632.46528 84.907363 
L 633.25152 83.943093 
L 634.03776 83.887596 
L 634.824 84.783704 
L 635.61024 85.128954 
L 636.39648 83.493202 
L 637.18272 82.130672 
L 637.96896 81.46296 
L 638.7552 80.396283 
L 640.32768 81.057668 
L 641.11392 80.06382 
L 641.90016 80.103657 
L 642.6864 78.978523 
L 643.47264 79.829973 
L 644.25888 82.28421 
L 645.04512 81.728208 
L 645.83136 79.846475 
L 646.6176 80.455172 
L 647.40384 80.106109 
L 648.19008 80.588779 
L 648.97632 80.43726 
L 649.76256 78.524453 
L 651.33504 79.050433 
L 652.12128 81.025611 
L 652.90752 82.621255 
L 653.69376 83.34687 
L 654.48 82.831216 
L 655.26624 83.682977 
L 656.05248 85.76264 
L 656.83872 86.346864 
L 657.62496 88.43597 
L 658.4112 89.284411 
L 659.19744 90.876756 
L 659.98368 93.845266 
L 660.76992 95.935048 
L 661.55616 98.9357 
L 662.3424 99.805174 
L 663.12864 102.120026 
L 664.70112 104.449242 
L 665.48736 106.440064 
L 666.2736 108.846247 
L 667.05984 109.349393 
L 669.41856 113.134863 
L 670.2048 113.695276 
L 670.99104 113.460478 
L 671.77728 112.825753 
L 672.56352 112.924748 
L 673.34976 112.164941 
L 674.136 113.601267 
L 674.92224 114.528379 
L 675.70848 114.876417 
L 676.49472 114.479204 
L 677.28096 114.352282 
L 678.0672 114.756321 
L 678.85344 113.441622 
L 679.63968 113.516124 
L 680.42592 112.737993 
L 681.21216 112.533866 
L 681.9984 114.288991 
L 682.78464 114.568242 
L 683.57088 115.590113 
L 684.35712 115.652708 
L 685.14336 115.219614 
L 685.9296 115.120806 
L 686.71584 116.016996 
L 687.50208 117.99554 
L 688.28832 118.187234 
L 689.07456 119.836434 
L 689.8608 120.13146 
L 690.64704 122.386669 
L 691.43328 123.821715 
L 692.21952 124.137204 
L 693.00576 123.398871 
L 693.792 120.998308 
L 694.57824 120.880486 
L 695.36448 121.968887 
L 696.15072 121.816321 
L 696.93696 120.888717 
L 697.7232 120.520821 
L 700.08192 117.704438 
L 700.86816 115.840157 
L 701.6544 113.387627 
L 702.44064 111.505271 
L 703.22688 111.220925 
L 704.01312 110.260121 
L 704.79936 109.055744 
L 705.5856 108.084743 
L 706.37184 106.772518 
L 707.15808 104.998004 
L 707.94432 102.515264 
L 708.73056 101.066801 
L 709.5168 98.818685 
L 710.30304 97.399956 
L 712.66176 92.414201 
L 713.448 92.858814 
L 714.23424 92.611508 
L 715.02048 91.24214 
L 715.80672 88.559604 
L 716.59296 86.629951 
L 717.3792 86.174459 
L 718.16544 87.187534 
L 718.95168 85.99385 
L 719.73792 87.115328 
L 720.52416 86.56211 
L 721.3104 87.316458 
L 722.09664 89.34688 
L 722.88288 88.802088 
L 723.66912 87.669831 
L 724.45536 88.568453 
L 725.2416 87.837109 
L 726.81408 91.213257 
L 727.60032 91.766673 
L 728.38656 92.062526 
L 729.1728 93.866052 
L 729.95904 94.268236 
L 730.74528 95.886835 
L 731.53152 96.059334 
L 732.31776 97.267611 
L 733.104 98.168815 
L 733.89024 95.821556 
L 734.67648 96.102476 
L 735.46272 97.550533 
L 736.24896 97.726826 
L 737.0352 97.282783 
L 737.82144 96.604026 
L 738.60768 96.763573 
L 739.39392 96.445135 
L 740.18016 97.324171 
L 740.9664 98.753722 
L 741.75264 98.746971 
L 742.53888 98.074327 
L 743.32512 98.887313 
L 744.11136 100.952702 
L 744.8976 101.707639 
L 745.68384 103.97468 
L 746.47008 104.461941 
L 748.04256 109.835188 
L 748.8288 110.092849 
L 749.61504 112.194477 
L 751.18752 113.384054 
L 751.97376 113.691089 
L 752.76 114.40748 
L 753.54624 114.45498 
L 754.33248 116.739726 
L 755.11872 116.020381 
L 755.90496 114.024881 
L 756.6912 113.895848 
L 758.26368 111.132459 
L 759.04992 109.990079 
L 759.83616 108.426556 
L 760.6224 108.058667 
L 761.40864 106.434868 
L 762.19488 106.793153 
L 762.98112 104.975334 
L 763.76736 105.104994 
L 764.5536 102.732157 
L 765.33984 101.66475 
L 768.4848 95.650933 
L 769.27104 95.187835 
L 770.05728 93.744106 
L 770.84352 92.828166 
L 772.416 92.488978 
L 773.20224 91.970596 
L 773.98848 90.01795 
L 774.77472 89.128919 
L 775.56096 90.787571 
L 776.3472 90.465361 
L 777.13344 91.885355 
L 777.91968 93.630056 
L 778.70592 94.305085 
L 779.49216 95.175551 
L 780.2784 97.727105 
L 781.06464 98.941561 
L 782.63712 100.710559 
L 783.42336 101.96701 
L 784.2096 101.834909 
L 784.99584 102.096972 
L 785.78208 102.873899 
L 786.56832 104.697227 
L 787.35456 104.931618 
L 788.1408 105.695928 
L 788.92704 107.826327 
L 789.71328 109.218511 
L 790.49952 109.504025 
L 791.28576 108.344691 
L 792.072 109.249138 
L 792.85824 109.078797 
L 793.64448 108.609719 
L 794.43072 111.20992 
L 795.21696 113.327311 
L 796.0032 112.988709 
L 796.78944 113.906271 
L 797.57568 114.334818 
L 798.36192 114.612022 
L 799.14816 113.244936 
L 799.9344 114.585471 
L 800.72064 114.419676 
L 801.50688 116.392981 
L 802.29312 116.161181 
L 803.07936 116.551436 
L 803.8656 118.989062 
L 804.65184 120.79261 
L 805.43808 121.304432 
L 806.22432 123.094224 
L 807.7968 127.184764 
L 808.58304 127.101489 
L 809.36928 129.874819 
L 810.15552 128.477987 
L 810.94176 129.348341 
L 812.51424 130.671407 
L 813.30048 131.134526 
L 814.08672 130.636369 
L 814.87296 128.358292 
L 815.6592 129.363756 
L 816.44544 128.383301 
L 818.01792 125.219124 
L 818.80416 125.555054 
L 819.5904 125.217232 
L 820.37664 127.451846 
L 821.16288 125.817254 
L 821.94912 125.927921 
L 823.5216 124.294852 
L 824.30784 123.792504 
L 825.09408 124.83389 
L 825.88032 122.592209 
L 826.66656 122.294138 
L 827.4528 123.247687 
L 828.23904 123.463273 
L 829.02528 122.30016 
L 829.81152 121.610206 
L 830.59776 118.957547 
L 831.384 119.432504 
L 832.17024 118.049789 
L 832.95648 119.772002 
L 833.74272 119.494463 
L 834.52896 119.425127 
L 835.3152 118.554916 
L 836.10144 119.987842 
L 836.88768 120.469075 
L 837.67392 119.086155 
L 838.46016 118.874489 
L 839.2464 119.379896 
L 840.03264 119.324539 
L 841.60512 122.476518 
L 842.39136 122.114419 
L 843.1776 120.461583 
L 843.96384 121.651322 
L 844.75008 122.08506 
L 845.53632 123.602525 
L 846.32256 123.4101 
L 847.1088 122.652682 
L 848.68128 122.359743 
L 849.46752 121.761674 
L 850.25376 121.022071 
L 851.04 119.578657 
L 851.04 119.578657 
" clip-path="url(#p0580e6a352)" style="fill: none; stroke: #263238; stroke-width: 1.2; stroke-linecap: square"/>
   </g>
   <g id="patch_11">
    <path d="M 64.8 145.152 
L 64.8 10.08 
" style="fill: none; stroke: #000000; stroke-width: 0.8; stroke-linejoin: miter; stroke-linecap: square"/>
   </g>
   <g id="patch_12">
    <path d="M 64.8 145.152 
L 851.04 145.152 
" style="fill: none; stroke: #000000; stroke-width: 0.8; stroke-linejoin: miter; stroke-linecap: square"/>
   </g>
   <g id="text_14">
    <text style="font-size: 10.5px; font-family: 'SunTimes', serif; text-anchor: middle" x="168.9768" y="31.697543" transform="rotate(-0 168.9768 31.697543)">触发与轮密钥加</text>
   </g>
   <g id="text_15">
    <text style="font-size: 10.5px; font-family: 'SunTimes', serif; text-anchor: middle" x="275.1192" y="31.697543" transform="rotate(-0 275.1192 31.697543)">第一轮 S 盒</text>
   </g>
   <g id="text_16">
    <text style="font-size: 10.5px; font-family: 'SunTimes', serif; text-anchor: middle" x="385.1928" y="31.631098" transform="rotate(-0 385.1928 31.631098)">ShiftRows</text>
   </g>
   <g id="text_17">
    <text style="font-size: 10.5px; font-family: 'SunTimes', serif; text-anchor: middle" x="491.3352" y="31.631098" transform="rotate(-0 491.3352 31.631098)">MixColumns</text>
   </g>
   <g id="text_18">
    <text style="font-size: 10.5px; font-family: 'SunTimes', serif; text-anchor: middle" x="678.0672" y="31.759067" transform="rotate(-0 678.0672 31.759067)">后续轮操作</text>
   </g>
   <g id="patch_13">
    <path d="M 379.23625 45.793269 
Q 343.893807 41.730943 309.995302 37.834587 
" style="fill: none; stroke: #e53935; stroke-width: 1.3; stroke-linecap: round"/>
    <path d="M 313.928031 40.400448 
L 309.995302 37.834587 
L 314.407629 36.227921 
" style="fill: none; stroke: #e53935; stroke-width: 1.3; stroke-linecap: round"/>
   </g>
   <g id="text_19">
    <text style="font-size: 10.5px; font-family: 'SunTimes', serif; fill: #e53935" transform="translate(383.2272 48.683432)">非线性 S 盒区域</text>
    <text style="font-size: 10.5px; font-family: 'SunTimes', serif; fill: #e53935" transform="translate(383.2272 59.849854)">HW 类间差异更明显</text>
   </g>
   <g id="text_20">
    <text style="font-weight: 700; font-size: 10.5px; font-family: 'SunTimes', serif; text-anchor: middle" x="457.92" y="194.327897" transform="rotate(-0 457.92 194.327897)">(a) 完整功耗曲线：第一轮 S 盒区域具有更明显的 HW 类间差异和更高的示意信噪比</text>
   </g>
  </g>
  <g id="axes_2">
   <g id="patch_14">
    <path d="M 630.3552 76.56096 
L 826.9152 76.56096 
L 826.9152 25.2336 
L 630.3552 25.2336 
z
" style="fill: #ffffff"/>
   </g>
   <g id="patch_15">
    <path d="M 672.638456 76.56096 
L 692.065898 76.56096 
L 692.065898 25.2336 
L 672.638456 25.2336 
z
" clip-path="url(#pcf1b61d7ec)" style="fill: #fdecec; stroke: #fdecec; stroke-linejoin: miter"/>
   </g>
   <g id="matplotlib.axis_3">
    <g id="xtick_7">
     <g id="line2d_18">
      <defs>
       <path id="m2f5acab33a" d="M 0 0 
L 0 2 
" style="stroke: #000000; stroke-width: 0.8"/>
      </defs>
      <g>
       <use xlink:href="#m2f5acab33a" x="682.352177" y="76.56096" style="stroke: #000000; stroke-width: 0.8"/>
      </g>
     </g>
     <g id="text_21">
      <text style="font-size: 9.5px; font-family: 'SunTimes', serif; text-anchor: middle" x="682.352177" y="88.666429" transform="rotate(-0 682.352177 88.666429)">S 盒</text>
     </g>
    </g>
    <g id="xtick_8">
     <g id="line2d_19">
      <g>
       <use xlink:href="#m2f5acab33a" x="730.920781" y="76.56096" style="stroke: #000000; stroke-width: 0.8"/>
      </g>
     </g>
     <g id="text_22">
      <text style="font-size: 9.5px; font-family: 'SunTimes', serif; text-anchor: middle" x="730.920781" y="88.823773" transform="rotate(-0 730.920781 88.823773)">线性运算</text>
     </g>
    </g>
    <g id="xtick_9">
     <g id="line2d_20">
      <g>
       <use xlink:href="#m2f5acab33a" x="790.345898" y="76.56096" style="stroke: #000000; stroke-width: 0.8"/>
      </g>
     </g>
     <g id="text_23">
      <text style="font-size: 9.5px; font-family: 'SunTimes', serif; text-anchor: middle" x="790.345898" y="88.897991" transform="rotate(-0 790.345898 88.897991)">后续轮</text>
     </g>
    </g>
    <g id="text_24">
     <text style="font-size: 9.5px; font-family: 'SunTimes', serif; text-anchor: middle" x="728.6352" y="98.655804" transform="rotate(-0 728.6352 98.655804)">操作区域</text>
    </g>
   </g>
   <g id="matplotlib.axis_4">
    <g id="ytick_6">
     <g id="line2d_21">
      <path d="M 630.3552 74.289838 
L 826.9152 74.289838 
" clip-path="url(#pcf1b61d7ec)" style="fill: none; stroke: #e0e0e0; stroke-opacity: 0.6; stroke-width: 0.4; stroke-linecap: square"/>
     </g>
     <g id="line2d_22">
      <defs>
       <path id="m609e5dd18f" d="M 0 0 
L -2 0 
" style="stroke: #000000; stroke-width: 0.8"/>
      </defs>
      <g>
       <use xlink:href="#m609e5dd18f" x="630.3552" y="74.289838" style="stroke: #000000; stroke-width: 0.8"/>
      </g>
     </g>
     <g id="text_25">
      <text style="font-size: 9.5px; font-family: 'SunTimes', serif; text-anchor: end" x="624.8552" y="77.671244" transform="rotate(-0 624.8552 77.671244)">低</text>
     </g>
    </g>
    <g id="ytick_7">
     <g id="line2d_23">
      <path d="M 630.3552 28.867395 
L 826.9152 28.867395 
" clip-path="url(#pcf1b61d7ec)" style="fill: none; stroke: #e0e0e0; stroke-opacity: 0.6; stroke-width: 0.4; stroke-linecap: square"/>
     </g>
     <g id="line2d_24">
      <g>
       <use xlink:href="#m609e5dd18f" x="630.3552" y="28.867395" style="stroke: #000000; stroke-width: 0.8"/>
      </g>
     </g>
     <g id="text_26">
      <text style="font-size: 9.5px; font-family: 'SunTimes', serif; text-anchor: end" x="624.8552" y="32.248802" transform="rotate(-0 624.8552 32.248802)">高</text>
     </g>
    </g>
    <g id="text_27">
     <text style="font-size: 9.5px; font-family: 'SunTimes', serif; text-anchor: middle" x="612.323091" y="50.89728" transform="rotate(-90 612.323091 50.89728)">归一化值</text>
    </g>
   </g>
   <g id="line2d_25">
    <path d="M 630.126642 74.193158 
L 634.469247 73.947608 
L 637.897619 73.535923 
L 641.554549 72.860053 
L 647.725619 71.668601 
L 650.239758 71.460697 
L 652.52534 71.506511 
L 655.039479 71.802013 
L 658.467851 72.468682 
L 663.267572 73.392335 
L 665.324595 73.580919 
L 666.695944 73.52651 
L 667.838735 73.280886 
L 668.752967 72.880538 
L 669.6672 72.221873 
L 670.581433 71.217268 
L 671.495665 69.769021 
L 672.409898 67.779817 
L 673.32413 65.168627 
L 674.238363 61.890942 
L 675.381153 56.884819 
L 676.98106 48.595305 
L 679.266642 36.648523 
L 680.180874 32.897856 
L 680.866549 30.794763 
L 681.552223 29.426465 
L 682.00934 28.960986 
L 682.466456 28.867537 
L 682.923572 29.148445 
L 683.380688 29.7968 
L 683.837805 30.796741 
L 684.523479 32.900976 
L 685.437712 36.653605 
L 686.80906 43.615729 
L 689.551758 57.989503 
L 690.694549 62.817411 
L 691.83734 66.621835 
L 692.751572 68.937375 
L 693.665805 70.67515 
L 694.580037 71.928068 
L 695.49427 72.796828 
L 696.408502 73.376632 
L 697.551293 73.818142 
L 698.922642 74.090068 
L 700.979665 74.240884 
L 705.550828 74.281959 
L 716.29306 74.158822 
L 722.007014 73.884408 
L 727.492409 73.392867 
L 737.091851 72.474171 
L 740.748781 72.401005 
L 744.405712 72.558238 
L 749.205433 73.014617 
L 757.890642 73.868382 
L 763.376037 74.144792 
L 770.689898 74.267364 
L 791.717247 74.289832 
L 827.143758 74.289838 
L 827.143758 74.289838 
" clip-path="url(#pcf1b61d7ec)" style="fill: none; stroke: #e53935; stroke-width: 1.25; stroke-linecap: square"/>
   </g>
   <g id="patch_16">
    <path d="M 630.3552 76.56096 
L 630.3552 25.2336 
" style="fill: none; stroke: #000000; stroke-width: 0.8; stroke-linejoin: miter; stroke-linecap: square"/>
   </g>
   <g id="patch_17">
    <path d="M 630.3552 76.56096 
L 826.9152 76.56096 
" style="fill: none; stroke: #000000; stroke-width: 0.8; stroke-linejoin: miter; stroke-linecap: square"/>
   </g>
   <g id="patch_18">
    <path d="M 708.096408 33.763932 
Q 696.206357 31.502452 685.41465 29.449876 
" style="fill: none; stroke: #e53935; stroke-linecap: round"/>
    <path d="M 688.792711 32.026443 
L 685.41465 29.449876 
L 689.50274 28.293366 
" style="fill: none; stroke: #e53935; stroke-linecap: round"/>
   </g>
   <g id="text_28">
    <text style="font-size: 9.5px; font-family: 'SunTimes', serif; text-anchor: start; fill: #e53935" x="712.064735" y="41.225684" transform="rotate(-0 712.064735 41.225684)">S 盒处最高</text>
   </g>
   <g id="text_29">
    <text style="font-size: 9.5px; font-family: 'SunTimes', serif; text-anchor: middle" x="728.6352" y="23.201491" transform="rotate(-0 728.6352 23.201491)">HW 类间可分性 / SNR</text>
   </g>
  </g>
 </g>
 <defs>
  <clipPath id="p0580e6a352">
   <rect x="64.8" y="10.08" width="786.24" height="135.072"/>
  </clipPath>
  <clipPath id="pcf1b61d7ec">
   <rect x="630.3552" y="25.2336" width="196.56" height="51.32736"/>
  </clipPath>
 </defs>
</svg>
