<?xml version="1.0" encoding="utf-8" standalone="no"?>
<!DOCTYPE svg PUBLIC "-//W3C//DTD SVG 1.1//EN"
  "http://www.w3.org/Graphics/SVG/1.1/DTD/svg11.dtd">
<svg xmlns:xlink="http://www.w3.org/1999/xlink" width="594.927838pt" height="179.728219pt" viewBox="0 0 594.927838 179.728219" xmlns="http://www.w3.org/2000/svg" version="1.1">
 <metadata>
  <rdf:RDF xmlns:dc="http://purl.org/dc/elements/1.1/" xmlns:cc="http://creativecommons.org/ns#" xmlns:rdf="http://www.w3.org/1999/02/22-rdf-syntax-ns#">
   <cc:Work>
    <dc:type rdf:resource="http://purl.org/dc/dcmitype/StillImage"/>
    <dc:date>2026-05-17T20:11:31.219421</dc:date>
    <dc:format>image/svg+xml</dc:format>
    <dc:creator>
     <cc:Agent>
      <dc:title>Matplotlib v3.10.8, https://matplotlib.org/</dc:title>
     </cc:Agent>
    </dc:creator>
   </cc:Work>
  </rdf:RDF>
 </metadata>
 <defs>
  <style type="text/css">*{stroke-linejoin: round; stroke-linecap: butt}</style>
 </defs>
 <g id="figure_1">
  <g id="patch_1">
   <path d="M 0 179.728219 
L 594.927838 179.728219 
L 594.927838 0 
L 0 0 
z
" style="fill: #ffffff"/>
  </g>
  <g id="axes_1">
   <g id="patch_2">
    <path d="M 22.160703 147.979703 
L 275.976919 147.979703 
L 275.976919 18.955703 
L 22.160703 18.955703 
z
" style="fill: #ffffff"/>
   </g>
   <g id="matplotlib.axis_1">
    <g id="xtick_1">
     <g id="line2d_1">
      <defs>
       <path id="m4f13616c07" d="M 0 0 
L 0 3.5 
" style="stroke: #000000; stroke-width: 0.8"/>
      </defs>
      <g>
       <use xlink:href="#m4f13616c07" x="22.160703" y="147.979703" style="stroke: #000000; stroke-width: 0.8"/>
      </g>
     </g>
     <g id="text_1">
      <text style="font-size: 10.5px; font-family: 'SunTimes', serif; text-anchor: middle" x="22.160703" y="162.280484" transform="rotate(-0 22.160703 162.280484)">-60</text>
     </g>
    </g>
    <g id="xtick_2">
     <g id="line2d_2">
      <g>
       <use xlink:href="#m4f13616c07" x="64.463406" y="147.979703" style="stroke: #000000; stroke-width: 0.8"/>
      </g>
     </g>
     <g id="text_2">
      <text style="font-size: 10.5px; font-family: 'SunTimes', serif; text-anchor: middle" x="64.463406" y="162.280484" transform="rotate(-0 64.463406 162.280484)">-40</text>
     </g>
    </g>
    <g id="xtick_3">
     <g id="line2d_3">
      <g>
       <use xlink:href="#m4f13616c07" x="106.766109" y="147.979703" style="stroke: #000000; stroke-width: 0.8"/>
      </g>
     </g>
     <g id="text_3">
      <text style="font-size: 10.5px; font-family: 'SunTimes', serif; text-anchor: middle" x="106.766109" y="162.280484" transform="rotate(-0 106.766109 162.280484)">-20</text>
     </g>
    </g>
    <g id="xtick_4">
     <g id="line2d_4">
      <g>
       <use xlink:href="#m4f13616c07" x="149.068811" y="147.979703" style="stroke: #000000; stroke-width: 0.8"/>
      </g>
     </g>
     <g id="text_4">
      <text style="font-size: 10.5px; font-family: 'SunTimes', serif; text-anchor: middle" x="149.068811" y="162.280484" transform="rotate(-0 149.068811 162.280484)">0</text>
     </g>
    </g>
    <g id="xtick_5">
     <g id="line2d_5">
      <g>
       <use xlink:href="#m4f13616c07" x="191.371514" y="147.979703" style="stroke: #000000; stroke-width: 0.8"/>
      </g>
     </g>
     <g id="text_5">
      <text style="font-size: 10.5px; font-family: 'SunTimes', serif; text-anchor: middle" x="191.371514" y="162.280484" transform="rotate(-0 191.371514 162.280484)">20</text>
     </g>
    </g>
    <g id="xtick_6">
     <g id="line2d_6">
      <g>
       <use xlink:href="#m4f13616c07" x="233.674217" y="147.979703" style="stroke: #000000; stroke-width: 0.8"/>
      </g>
     </g>
     <g id="text_6">
      <text style="font-size: 10.5px; font-family: 'SunTimes', serif; text-anchor: middle" x="233.674217" y="162.280484" transform="rotate(-0 233.674217 162.280484)">40</text>
     </g>
    </g>
    <g id="xtick_7">
     <g id="line2d_7">
      <g>
       <use xlink:href="#m4f13616c07" x="275.976919" y="147.979703" style="stroke: #000000; stroke-width: 0.8"/>
      </g>
     </g>
     <g id="text_7">
      <text style="font-size: 10.5px; font-family: 'SunTimes', serif; text-anchor: middle" x="275.976919" y="162.280484" transform="rotate(-0 275.976919 162.280484)">60</text>
     </g>
    </g>
    <g id="text_8">
     <text style="font-size: 10.5px; font-family: 'SunTimes', serif; text-anchor: middle" x="149.068811" y="176.042203" transform="rotate(-0 149.068811 176.042203)">相对采样点</text>
    </g>
   </g>
   <g id="matplotlib.axis_2">
    <g id="ytick_1">
     <g id="line2d_8">
      <path d="M 22.160703 139.915703 
L 275.976919 139.915703 
" clip-path="url(#p46a73d7a30)" style="fill: none; stroke: #e0e0e0; stroke-opacity: 0.6; stroke-width: 0.5; stroke-linecap: square"/>
     </g>
     <g id="line2d_9">
      <defs>
       <path id="ma3348ad6f2" d="M 0 0 
L -3.5 0 
" style="stroke: #000000; stroke-width: 0.8"/>
      </defs>
      <g>
       <use xlink:href="#ma3348ad6f2" x="22.160703" y="139.915703" style="stroke: #000000; stroke-width: 0.8"/>
      </g>
     </g>
    </g>
    <g id="ytick_2">
     <g id="line2d_10">
      <path d="M 22.160703 113.035703 
L 275.976919 113.035703 
" clip-path="url(#p46a73d7a30)" style="fill: none; stroke: #e0e0e0; stroke-opacity: 0.6; stroke-width: 0.5; stroke-linecap: square"/>
     </g>
     <g id="line2d_11">
      <g>
       <use xlink:href="#ma3348ad6f2" x="22.160703" y="113.035703" style="stroke: #000000; stroke-width: 0.8"/>
      </g>
     </g>
    </g>
    <g id="ytick_3">
     <g id="line2d_12">
      <path d="M 22.160703 86.155703 
L 275.976919 86.155703 
" clip-path="url(#p46a73d7a30)" style="fill: none; stroke: #e0e0e0; stroke-opacity: 0.6; stroke-width: 0.5; stroke-linecap: square"/>
     </g>
     <g id="line2d_13">
      <g>
       <use xlink:href="#ma3348ad6f2" x="22.160703" y="86.155703" style="stroke: #000000; stroke-width: 0.8"/>
      </g>
     </g>
    </g>
    <g id="ytick_4">
     <g id="line2d_14">
      <path d="M 22.160703 59.275703 
L 275.976919 59.275703 
" clip-path="url(#p46a73d7a30)" style="fill: none; stroke: #e0e0e0; stroke-opacity: 0.6; stroke-width: 0.5; stroke-linecap: square"/>
     </g>
     <g id="line2d_15">
      <g>
       <use xlink:href="#ma3348ad6f2" x="22.160703" y="59.275703" style="stroke: #000000; stroke-width: 0.8"/>
      </g>
     </g>
    </g>
    <g id="ytick_5">
     <g id="line2d_16">
      <path d="M 22.160703 32.395703 
L 275.976919 32.395703 
" clip-path="url(#p46a73d7a30)" style="fill: none; stroke: #e0e0e0; stroke-opacity: 0.6; stroke-width: 0.5; stroke-linecap: square"/>
     </g>
     <g id="line2d_17">
      <g>
       <use xlink:href="#ma3348ad6f2" x="22.160703" y="32.395703" style="stroke: #000000; stroke-width: 0.8"/>
      </g>
     </g>
    </g>
    <g id="text_9">
     <text style="font-size: 10.5px; font-family: 'SunTimes', serif; text-anchor: middle" x="8.914688" y="83.467703" transform="rotate(-90 8.914688 83.467703)">多条轨迹</text>
    </g>
   </g>
   <g id="line2d_18">
    <path d="M 22.160703 140.970503 
L 23.222696 139.968413 
L 24.284688 139.762262 
L 25.346681 140.335795 
L 26.408673 141.140537 
L 27.470666 139.753617 
L 28.532658 140.188293 
L 29.594651 140.230024 
L 31.718636 143.240346 
L 32.780628 142.038366 
L 33.842621 140.60052 
L 34.904614 140.870212 
L 35.966606 140.190496 
L 37.028599 140.998905 
L 38.090591 139.215373 
L 39.152584 138.050841 
L 40.214576 138.426843 
L 41.276569 138.241039 
L 42.338561 140.272977 
L 43.400554 139.567906 
L 44.462546 138.660476 
L 45.524539 141.186678 
L 46.586531 141.204884 
L 47.648524 139.552899 
L 48.710517 140.216843 
L 49.772509 139.297118 
L 50.834502 140.544248 
L 51.896494 140.286744 
L 52.958487 139.504968 
L 54.020479 139.628783 
L 55.082472 140.647751 
L 56.144464 139.845246 
L 57.206457 138.792684 
L 58.268449 138.64109 
L 59.330442 138.706075 
L 60.392434 138.459579 
L 61.454427 137.913183 
L 62.51642 138.476553 
L 63.578412 137.848644 
L 64.640405 138.439588 
L 65.702397 137.499738 
L 66.76439 136.167707 
L 67.826382 136.145225 
L 69.950367 135.169265 
L 71.01236 135.848531 
L 72.074352 134.864915 
L 73.136345 135.639253 
L 74.198337 137.695409 
L 75.26033 136.010612 
L 76.322322 137.635072 
L 77.384315 136.616817 
L 78.446308 134.955258 
L 79.5083 134.341793 
L 80.570293 132.182976 
L 81.632285 128.997565 
L 82.694278 127.653025 
L 83.75627 124.367872 
L 84.818263 123.064551 
L 85.880255 122.062415 
L 86.942248 120.334148 
L 88.00424 119.44088 
L 89.066233 117.771731 
L 90.128225 116.863771 
L 91.190218 114.414649 
L 93.314203 111.107348 
L 95.438188 105.990094 
L 96.500181 104.444364 
L 97.562173 102.014905 
L 98.624166 99.947968 
L 99.686158 98.270897 
L 100.748151 96.163454 
L 103.934128 91.56148 
L 106.058114 88.195821 
L 107.120106 87.897427 
L 109.244091 84.296756 
L 110.306084 84.454527 
L 111.368076 82.227345 
L 112.430069 82.249552 
L 113.492061 82.52376 
L 114.554054 80.432481 
L 115.616046 82.061995 
L 116.678039 84.049979 
L 117.740031 84.310233 
L 118.802024 86.579657 
L 120.926009 88.261085 
L 121.988002 89.4246 
L 124.111987 92.263337 
L 125.173979 93.294315 
L 126.235972 94.985749 
L 127.297964 96.923299 
L 128.359957 100.017546 
L 129.421949 102.424501 
L 130.483942 103.151793 
L 131.545934 104.233124 
L 132.607927 104.289776 
L 133.669919 106.790351 
L 134.731912 107.704005 
L 135.793905 108.791716 
L 137.91789 114.228208 
L 138.979882 114.790805 
L 140.041875 118.498121 
L 141.103867 119.354362 
L 142.16586 121.611224 
L 143.227852 122.115542 
L 144.289845 121.837757 
L 145.351837 121.838937 
L 146.41383 122.650269 
L 147.475822 122.190461 
L 148.537815 122.978545 
L 149.599808 123.235459 
L 150.6618 123.615595 
L 151.723793 124.556505 
L 152.785785 125.308805 
L 153.847778 125.649203 
L 154.90977 127.260618 
L 157.033755 128.008513 
L 158.095748 129.151418 
L 159.15774 130.745595 
L 160.219733 130.438748 
L 161.281725 131.845674 
L 162.343718 131.339237 
L 163.40571 130.678775 
L 164.467703 132.061675 
L 165.529696 131.844009 
L 166.591688 131.754923 
L 167.653681 132.588934 
L 168.715673 132.436229 
L 169.777666 133.849397 
L 170.839658 135.58704 
L 171.901651 134.987052 
L 172.963643 135.825829 
L 175.087628 136.264663 
L 176.149621 137.027978 
L 177.211613 136.42591 
L 178.273606 135.53188 
L 179.335599 136.218642 
L 180.397591 136.570443 
L 181.459584 136.206424 
L 182.521576 136.466453 
L 183.583569 136.431802 
L 185.707554 135.520746 
L 186.769546 136.343559 
L 187.831539 136.110209 
L 188.893531 136.627722 
L 189.955524 137.606014 
L 191.017516 138.955722 
L 192.079509 141.593875 
L 193.141501 142.964777 
L 194.203494 142.282273 
L 195.265487 142.291418 
L 196.327479 142.462531 
L 197.389472 141.393433 
L 198.451464 139.642513 
L 199.513457 138.717909 
L 200.575449 138.993652 
L 201.637442 137.863312 
L 202.699434 138.673177 
L 203.761427 137.36778 
L 204.823419 136.528528 
L 205.885412 137.580419 
L 208.009397 136.453019 
L 209.07139 138.239265 
L 210.133382 136.271919 
L 211.195375 138.927261 
L 212.257367 140.397308 
L 213.31936 140.431814 
L 214.381352 139.147214 
L 216.505337 139.536071 
L 217.56733 140.598188 
L 218.629322 138.93598 
L 219.691315 138.022625 
L 220.753307 138.987379 
L 221.8153 139.69176 
L 222.877293 139.017423 
L 223.939285 138.485845 
L 225.001278 139.496733 
L 226.06327 140.167473 
L 227.125263 140.327317 
L 228.187255 138.576927 
L 229.249248 139.59934 
L 230.31124 139.742096 
L 231.373233 138.409336 
L 232.435225 137.990866 
L 233.497218 136.733558 
L 234.55921 137.76193 
L 235.621203 138.57481 
L 236.683195 138.344534 
L 237.745188 138.758073 
L 238.807181 141.079566 
L 239.869173 141.607025 
L 240.931166 144.053114 
L 241.993158 143.34399 
L 244.117143 141.139616 
L 245.179136 142.707882 
L 246.241128 141.253282 
L 247.303121 141.345569 
L 248.365113 140.663514 
L 249.427106 141.500634 
L 250.489098 143.27512 
L 252.613084 142.539779 
L 253.675076 143.264262 
L 254.737069 142.5709 
L 255.799061 141.604914 
L 256.861054 141.196574 
L 257.923046 141.127604 
L 258.985039 142.38147 
L 261.109024 140.00595 
L 262.171016 140.011012 
L 263.233009 139.391913 
L 264.295001 140.405164 
L 265.356994 138.677985 
L 266.418987 138.255831 
L 267.480979 138.219753 
L 268.542972 138.385416 
L 269.604964 137.587601 
L 270.666957 137.656083 
L 271.728949 137.382815 
L 272.790942 137.519212 
L 273.852934 138.100951 
L 275.976919 138.633842 
L 275.976919 138.633842 
" clip-path="url(#p46a73d7a30)" style="fill: none; stroke: #1565c0; stroke-opacity: 0.92; stroke-width: 1.1; stroke-linecap: square"/>
   </g>
   <g id="line2d_19">
    <path d="M 22.160703 129.704421 
L 23.222696 130.464452 
L 24.284688 130.171435 
L 25.346681 129.422293 
L 27.470666 131.645121 
L 29.594651 130.761211 
L 30.656643 128.771887 
L 32.780628 128.514928 
L 33.842621 127.954318 
L 34.904614 126.452818 
L 35.966606 126.650035 
L 37.028599 126.11981 
L 38.090591 126.797404 
L 39.152584 127.036062 
L 40.214576 126.893875 
L 41.276569 126.454194 
L 42.338561 127.855508 
L 43.400554 128.474513 
L 44.462546 128.553517 
L 45.524539 129.017028 
L 46.586531 130.479343 
L 47.648524 130.657825 
L 48.710517 131.239079 
L 50.834502 131.51832 
L 51.896494 131.146566 
L 52.958487 132.659744 
L 54.020479 132.348625 
L 55.082472 131.45532 
L 57.206457 128.362447 
L 58.268449 128.304649 
L 59.330442 127.982654 
L 60.392434 126.665639 
L 61.454427 126.005708 
L 62.51642 128.923714 
L 63.578412 129.889496 
L 66.76439 134.113277 
L 67.826382 134.15591 
L 68.888375 134.624298 
L 69.950367 132.81562 
L 71.01236 132.946531 
L 72.074352 132.502203 
L 73.136345 130.087479 
L 74.198337 129.098616 
L 75.26033 129.762933 
L 76.322322 128.395883 
L 78.446308 130.001727 
L 79.5083 130.21311 
L 80.570293 130.544511 
L 81.632285 130.326374 
L 82.694278 130.281489 
L 83.75627 130.486841 
L 84.818263 129.096328 
L 85.880255 128.084149 
L 86.942248 127.554409 
L 88.00424 127.403148 
L 89.066233 127.087118 
L 90.128225 124.655932 
L 91.190218 123.986134 
L 92.252211 124.928389 
L 93.314203 124.480204 
L 94.376196 123.546065 
L 95.438188 124.13075 
L 96.500181 123.326628 
L 97.562173 123.042544 
L 98.624166 121.720686 
L 99.686158 119.956437 
L 100.748151 117.947183 
L 101.810143 117.316385 
L 103.934128 112.983481 
L 104.996121 111.92379 
L 106.058114 110.450912 
L 108.182099 104.971801 
L 109.244091 101.718269 
L 110.306084 99.844569 
L 111.368076 99.784435 
L 112.430069 97.806905 
L 113.492061 96.585164 
L 114.554054 95.643254 
L 115.616046 95.229427 
L 116.678039 94.633342 
L 117.740031 93.836714 
L 120.926009 84.977767 
L 123.049994 81.348444 
L 124.111987 80.748241 
L 126.235972 76.79258 
L 127.297964 77.267877 
L 128.359957 77.161298 
L 130.483942 77.202977 
L 131.545934 76.152881 
L 132.607927 75.574918 
L 133.669919 78.231272 
L 134.731912 79.143677 
L 135.793905 79.20197 
L 136.855897 80.097085 
L 137.91789 80.582596 
L 138.979882 82.275287 
L 140.041875 84.753318 
L 141.103867 85.855526 
L 142.16586 88.096024 
L 143.227852 92.305798 
L 144.289845 93.998633 
L 145.351837 96.897709 
L 146.41383 99.344094 
L 148.537815 102.04179 
L 149.599808 102.212265 
L 150.6618 102.124447 
L 151.723793 103.330915 
L 152.785785 103.591543 
L 153.847778 104.014341 
L 154.90977 104.681125 
L 155.971763 106.308212 
L 157.033755 108.418374 
L 159.15774 111.563464 
L 161.281725 112.791962 
L 162.343718 113.446819 
L 163.40571 113.746669 
L 164.467703 113.819127 
L 165.529696 113.482714 
L 167.653681 115.436574 
L 168.715673 117.486971 
L 169.777666 118.137841 
L 170.839658 117.85959 
L 171.901651 117.939628 
L 174.025636 119.77319 
L 175.087628 121.269948 
L 176.149621 119.498205 
L 177.211613 119.515484 
L 179.335599 122.509739 
L 180.397591 123.153594 
L 181.459584 122.529367 
L 182.521576 122.713728 
L 183.583569 124.623646 
L 184.645561 125.440329 
L 185.707554 124.701291 
L 186.769546 124.450569 
L 188.893531 124.707123 
L 189.955524 122.970935 
L 191.017516 122.245155 
L 192.079509 121.714208 
L 193.141501 123.6618 
L 194.203494 124.339405 
L 196.327479 125.948115 
L 197.389472 129.495265 
L 198.451464 130.409369 
L 199.513457 130.453184 
L 200.575449 129.188783 
L 202.699434 127.896233 
L 203.761427 127.633636 
L 204.823419 125.493378 
L 205.885412 125.315163 
L 206.947404 126.091485 
L 208.009397 127.217646 
L 210.133382 128.193378 
L 211.195375 128.666913 
L 212.257367 130.308484 
L 213.31936 131.589414 
L 214.381352 131.858856 
L 215.443345 131.093576 
L 216.505337 130.59013 
L 217.56733 130.546029 
L 218.629322 128.748234 
L 219.691315 127.843996 
L 220.753307 126.179333 
L 222.877293 126.362454 
L 223.939285 127.338417 
L 225.001278 127.322126 
L 226.06327 128.647926 
L 227.125263 129.604263 
L 228.187255 130.103237 
L 229.249248 131.112036 
L 230.31124 131.096617 
L 231.373233 130.037709 
L 232.435225 129.98948 
L 233.497218 130.980921 
L 234.55921 131.298946 
L 235.621203 133.105377 
L 236.683195 132.629736 
L 237.745188 132.794685 
L 238.807181 134.832894 
L 239.869173 135.790767 
L 240.931166 136.099484 
L 241.993158 135.542816 
L 243.055151 133.078885 
L 244.117143 132.737515 
L 245.179136 131.614806 
L 246.241128 129.877723 
L 247.303121 129.752356 
L 248.365113 127.443797 
L 249.427106 126.3832 
L 250.489098 128.374899 
L 251.551091 128.714248 
L 252.613084 130.337221 
L 253.675076 130.963141 
L 254.737069 130.429772 
L 255.799061 130.738674 
L 256.861054 131.166972 
L 258.985039 129.314913 
L 260.047031 129.002572 
L 261.109024 128.412816 
L 262.171016 128.772651 
L 263.233009 128.675539 
L 265.356994 128.977053 
L 266.418987 130.468803 
L 267.480979 130.178426 
L 268.542972 130.955662 
L 269.604964 129.874335 
L 270.666957 130.312007 
L 272.790942 130.022627 
L 273.852934 129.149497 
L 274.914927 129.237127 
L 275.976919 128.897372 
L 275.976919 128.897372 
" clip-path="url(#p46a73d7a30)" style="fill: none; stroke: #2e7d32; stroke-opacity: 0.92; stroke-width: 1.1; stroke-linecap: square"/>
   </g>
   <g id="line2d_20">
    <path d="M 22.160703 123.073827 
L 23.222696 123.017315 
L 24.284688 121.550258 
L 25.346681 120.801736 
L 26.408673 121.115814 
L 27.470666 120.641114 
L 28.532658 119.450207 
L 29.594651 118.611694 
L 30.656643 118.810212 
L 31.718636 119.314107 
L 32.780628 121.214527 
L 33.842621 120.551753 
L 34.904614 120.622781 
L 35.966606 121.255532 
L 37.028599 121.665667 
L 39.152584 121.657719 
L 40.214576 120.991425 
L 41.276569 120.724188 
L 42.338561 120.866557 
L 43.400554 119.037611 
L 44.462546 118.802028 
L 45.524539 117.130283 
L 46.586531 117.484757 
L 47.648524 117.165039 
L 48.710517 116.992601 
L 49.772509 116.459155 
L 50.834502 118.248085 
L 51.896494 118.249658 
L 52.958487 120.770737 
L 54.020479 122.199806 
L 55.082472 121.364149 
L 56.144464 122.396121 
L 57.206457 123.062992 
L 58.268449 121.937474 
L 59.330442 122.264239 
L 61.454427 120.075212 
L 62.51642 120.108238 
L 63.578412 122.076573 
L 64.640405 121.183469 
L 65.702397 120.529685 
L 66.76439 119.059283 
L 67.826382 118.657054 
L 68.888375 118.83709 
L 69.950367 119.539592 
L 71.01236 119.111762 
L 72.074352 120.001268 
L 73.136345 121.220511 
L 75.26033 124.978292 
L 76.322322 125.492464 
L 77.384315 126.549179 
L 78.446308 125.283526 
L 79.5083 125.83838 
L 81.632285 124.913728 
L 82.694278 124.281878 
L 83.75627 123.946226 
L 84.818263 123.145775 
L 85.880255 122.881477 
L 86.942248 121.905116 
L 88.00424 122.188974 
L 90.128225 121.906512 
L 91.190218 121.43908 
L 92.252211 121.337682 
L 93.314203 122.987115 
L 95.438188 122.967043 
L 96.500181 121.87361 
L 98.624166 118.495099 
L 99.686158 118.391183 
L 100.748151 116.054297 
L 101.810143 115.067797 
L 102.872136 115.769084 
L 103.934128 117.393942 
L 104.996121 119.506223 
L 106.058114 120.750383 
L 107.120106 120.332738 
L 108.182099 119.427697 
L 109.244091 119.62666 
L 110.306084 116.742682 
L 111.368076 114.185825 
L 112.430069 110.435223 
L 113.492061 111.17555 
L 114.554054 109.078843 
L 115.616046 109.171449 
L 116.678039 107.491472 
L 117.740031 106.795631 
L 118.802024 106.363424 
L 119.864016 107.176365 
L 120.926009 103.042589 
L 121.988002 101.786109 
L 124.111987 96.56055 
L 125.173979 93.282745 
L 126.235972 90.68895 
L 127.297964 88.535949 
L 128.359957 87.430905 
L 129.421949 84.915261 
L 130.483942 83.96565 
L 131.545934 83.451804 
L 132.607927 84.70696 
L 133.669919 82.788042 
L 134.731912 80.329282 
L 136.855897 77.283362 
L 137.91789 75.118337 
L 138.979882 72.519248 
L 140.041875 67.480445 
L 141.103867 65.357911 
L 143.227852 62.346851 
L 144.289845 62.136698 
L 145.351837 61.233008 
L 146.41383 61.628533 
L 147.475822 63.121555 
L 148.537815 64.842253 
L 149.599808 64.125303 
L 150.6618 63.014305 
L 151.723793 63.421616 
L 152.785785 64.7288 
L 153.847778 65.471744 
L 154.90977 65.928976 
L 155.971763 65.259016 
L 157.033755 66.427296 
L 158.095748 70.402971 
L 159.15774 70.345734 
L 160.219733 71.240852 
L 161.281725 71.28512 
L 162.343718 72.013198 
L 163.40571 74.412422 
L 164.467703 76.473573 
L 165.529696 77.076645 
L 166.591688 80.073251 
L 167.653681 80.646859 
L 169.777666 85.838992 
L 171.901651 87.983773 
L 172.963643 87.925152 
L 174.025636 88.850408 
L 175.087628 90.75431 
L 176.149621 90.840463 
L 177.211613 92.482811 
L 178.273606 95.001264 
L 179.335599 96.100189 
L 180.397591 98.551351 
L 181.459584 99.002583 
L 182.521576 102.737807 
L 183.583569 103.844343 
L 184.645561 104.668937 
L 185.707554 104.733082 
L 186.769546 105.911233 
L 187.831539 105.932975 
L 188.893531 107.119057 
L 189.955524 105.117718 
L 191.017516 107.358995 
L 193.141501 110.868228 
L 194.203494 111.079013 
L 196.327479 113.917997 
L 197.389472 114.86181 
L 198.451464 114.059509 
L 199.513457 114.379038 
L 200.575449 113.470214 
L 201.637442 113.685559 
L 202.699434 114.197238 
L 203.761427 112.560541 
L 204.823419 112.239017 
L 205.885412 113.348939 
L 206.947404 112.406611 
L 208.009397 112.711347 
L 209.07139 113.929552 
L 210.133382 113.928893 
L 211.195375 115.808418 
L 212.257367 116.56445 
L 213.31936 116.979663 
L 214.381352 117.857476 
L 215.443345 117.278174 
L 216.505337 117.649698 
L 217.56733 116.124849 
L 218.629322 115.699371 
L 219.691315 116.234963 
L 220.753307 116.023965 
L 221.8153 116.381444 
L 222.877293 117.03231 
L 223.939285 117.117709 
L 225.001278 118.864851 
L 226.06327 118.88918 
L 228.187255 119.445972 
L 229.249248 119.577399 
L 230.31124 120.027712 
L 231.373233 120.173946 
L 232.435225 120.171834 
L 233.497218 120.318724 
L 235.621203 118.208993 
L 236.683195 118.593283 
L 237.745188 118.219495 
L 239.869173 118.316349 
L 240.931166 119.829337 
L 241.993158 119.35464 
L 243.055151 121.143061 
L 244.117143 120.607346 
L 245.179136 120.690234 
L 246.241128 120.634676 
L 247.303121 121.145336 
L 248.365113 119.71566 
L 249.427106 119.945726 
L 250.489098 119.357891 
L 251.551091 119.042213 
L 252.613084 120.564622 
L 253.675076 120.731808 
L 254.737069 119.90828 
L 255.799061 120.420585 
L 256.861054 122.359647 
L 257.923046 122.675328 
L 258.985039 122.866971 
L 260.047031 121.803287 
L 261.109024 121.484056 
L 262.171016 121.57657 
L 263.233009 121.788723 
L 264.295001 121.683393 
L 265.356994 120.464664 
L 266.418987 119.80061 
L 268.542972 119.576794 
L 269.604964 119.423852 
L 270.666957 117.352312 
L 271.728949 115.966127 
L 273.852934 117.165869 
L 274.914927 117.229693 
L 275.976919 117.517691 
L 275.976919 117.517691 
" clip-path="url(#p46a73d7a30)" style="fill: none; stroke: #6a1b9a; stroke-opacity: 0.92; stroke-width: 1.1; stroke-linecap: square"/>
   </g>
   <g id="line2d_21">
    <path d="M 22.160703 112.634213 
L 23.222696 112.831953 
L 24.284688 112.659758 
L 25.346681 112.874282 
L 26.408673 111.311056 
L 27.470666 111.197843 
L 28.532658 109.879044 
L 29.594651 107.775654 
L 30.656643 107.903928 
L 31.718636 108.509168 
L 32.780628 107.685949 
L 33.842621 107.735562 
L 34.904614 106.89394 
L 35.966606 107.516336 
L 37.028599 110.276673 
L 38.090591 110.402672 
L 39.152584 109.570806 
L 42.338561 110.802587 
L 43.400554 112.415374 
L 44.462546 111.760877 
L 45.524539 110.267151 
L 46.586531 111.015206 
L 47.648524 110.54711 
L 48.710517 111.067389 
L 49.772509 110.332036 
L 50.834502 108.262432 
L 51.896494 108.616478 
L 52.958487 109.220597 
L 54.020479 110.170401 
L 55.082472 111.618971 
L 56.144464 111.345387 
L 57.206457 111.579148 
L 58.268449 112.630778 
L 59.330442 111.882594 
L 60.392434 111.898483 
L 61.454427 110.521082 
L 62.51642 109.327405 
L 63.578412 108.562781 
L 64.640405 109.168982 
L 67.826382 111.852217 
L 68.888375 113.255843 
L 69.950367 113.241249 
L 71.01236 113.025448 
L 72.074352 113.291402 
L 73.136345 113.193239 
L 74.198337 111.188543 
L 75.26033 110.845362 
L 76.322322 109.387614 
L 77.384315 109.304423 
L 78.446308 110.219672 
L 79.5083 109.798424 
L 80.570293 108.647284 
L 81.632285 109.975265 
L 82.694278 110.202825 
L 83.75627 111.119418 
L 84.818263 111.489933 
L 85.880255 112.242243 
L 86.942248 112.583261 
L 88.00424 111.577629 
L 89.066233 111.914929 
L 90.128225 110.159487 
L 91.190218 108.852784 
L 92.252211 108.084199 
L 93.314203 107.018015 
L 94.376196 107.818307 
L 95.438188 109.269686 
L 96.500181 109.761232 
L 97.562173 111.647278 
L 98.624166 111.076236 
L 100.748151 113.065258 
L 101.810143 111.88268 
L 102.872136 111.787655 
L 104.996121 109.133018 
L 106.058114 110.97272 
L 108.182099 111.876624 
L 109.244091 110.92377 
L 110.306084 109.267907 
L 111.368076 109.958814 
L 112.430069 110.867971 
L 113.492061 110.251632 
L 114.554054 109.797344 
L 115.616046 108.908926 
L 116.678039 109.616865 
L 117.740031 110.793172 
L 118.802024 109.778404 
L 119.864016 109.73574 
L 120.926009 108.970757 
L 121.988002 109.362543 
L 123.049994 109.347013 
L 124.111987 108.434059 
L 125.173979 109.400984 
L 126.235972 110.728038 
L 128.359957 111.192359 
L 129.421949 109.56071 
L 131.545934 108.08496 
L 132.607927 106.086094 
L 133.669919 104.334954 
L 134.731912 101.963244 
L 135.793905 101.271193 
L 136.855897 102.675121 
L 137.91789 101.32034 
L 138.979882 101.406302 
L 141.103867 97.669693 
L 142.16586 97.287884 
L 143.227852 96.205194 
L 144.289845 91.802246 
L 145.351837 90.570065 
L 146.41383 87.518829 
L 148.537815 87.309188 
L 150.6618 82.812646 
L 151.723793 82.271534 
L 152.785785 79.39607 
L 153.847778 79.027674 
L 154.90977 77.098964 
L 155.971763 74.637451 
L 157.033755 73.956685 
L 159.15774 70.379135 
L 160.219733 69.721358 
L 161.281725 68.17317 
L 162.343718 68.05969 
L 163.40571 66.536834 
L 164.467703 62.335529 
L 165.529696 60.979768 
L 167.653681 59.049026 
L 168.715673 57.493998 
L 169.777666 54.219186 
L 170.839658 53.941013 
L 171.901651 55.430483 
L 172.963643 55.468544 
L 174.025636 56.12792 
L 175.087628 55.790648 
L 176.149621 56.898166 
L 177.211613 58.365288 
L 178.273606 57.618561 
L 179.335599 58.937025 
L 180.397591 60.946765 
L 181.459584 60.798227 
L 182.521576 63.637294 
L 183.583569 65.514983 
L 184.645561 66.488041 
L 185.707554 69.842841 
L 186.769546 71.634052 
L 187.831539 72.410055 
L 188.893531 73.740378 
L 189.955524 74.742799 
L 191.017516 75.349998 
L 192.079509 78.380575 
L 193.141501 78.582154 
L 194.203494 79.561569 
L 195.265487 80.286948 
L 196.327479 82.833681 
L 197.389472 83.942686 
L 198.451464 84.885014 
L 199.513457 85.404469 
L 200.575449 88.381513 
L 201.637442 90.18586 
L 202.699434 92.47312 
L 203.761427 93.346363 
L 204.823419 95.512654 
L 205.885412 97.197554 
L 206.947404 97.577823 
L 208.009397 96.942251 
L 209.07139 97.194973 
L 210.133382 97.155857 
L 211.195375 97.280762 
L 212.257367 96.455587 
L 213.31936 96.597295 
L 216.505337 101.878842 
L 217.56733 101.994434 
L 218.629322 102.36382 
L 219.691315 102.016045 
L 220.753307 103.912854 
L 221.8153 102.344893 
L 222.877293 102.730877 
L 223.939285 103.239021 
L 225.001278 103.298151 
L 226.06327 104.150502 
L 227.125263 106.713151 
L 228.187255 107.110451 
L 229.249248 109.153004 
L 230.31124 110.003139 
L 232.435225 108.381759 
L 233.497218 107.198965 
L 234.55921 107.20172 
L 235.621203 106.205929 
L 236.683195 106.014001 
L 237.745188 106.465018 
L 238.807181 107.528386 
L 240.931166 112.794693 
L 241.993158 111.401914 
L 243.055151 112.639028 
L 244.117143 113.153078 
L 245.179136 111.094678 
L 246.241128 110.733117 
L 247.303121 110.15452 
L 248.365113 109.344509 
L 249.427106 110.158241 
L 250.489098 109.162788 
L 251.551091 109.670076 
L 252.613084 109.396214 
L 253.675076 110.183409 
L 254.737069 110.139762 
L 255.799061 110.533312 
L 256.861054 110.111031 
L 257.923046 110.096464 
L 258.985039 109.741994 
L 260.047031 112.148491 
L 261.109024 110.422403 
L 263.233009 112.160353 
L 264.295001 113.323794 
L 265.356994 113.445104 
L 266.418987 113.710272 
L 267.480979 111.62881 
L 268.542972 112.380546 
L 269.604964 112.228209 
L 270.666957 110.956318 
L 271.728949 110.180167 
L 272.790942 110.216228 
L 273.852934 109.640869 
L 274.914927 110.729852 
L 275.976919 110.720108 
L 275.976919 110.720108 
" clip-path="url(#p46a73d7a30)" style="fill: none; stroke: #ef6c00; stroke-opacity: 0.92; stroke-width: 1.1; stroke-linecap: square"/>
   </g>
   <g id="line2d_22">
    <path d="M 22.160703 100.456657 
L 23.222696 100.010155 
L 24.284688 100.698229 
L 25.346681 101.633746 
L 26.408673 104.716708 
L 27.470666 103.399636 
L 28.532658 104.785094 
L 29.594651 104.578824 
L 30.656643 104.784473 
L 31.718636 104.045598 
L 32.780628 103.576101 
L 33.842621 100.473143 
L 34.904614 101.44955 
L 35.966606 101.383572 
L 37.028599 101.608242 
L 38.090591 101.510859 
L 39.152584 101.832376 
L 40.214576 100.523847 
L 41.276569 101.187435 
L 42.338561 100.764813 
L 43.400554 100.62207 
L 44.462546 99.677647 
L 45.524539 99.435313 
L 46.586531 98.273837 
L 48.710517 99.506614 
L 49.772509 99.253138 
L 50.834502 97.486157 
L 51.896494 98.232145 
L 52.958487 98.754382 
L 54.020479 100.294674 
L 55.082472 101.411978 
L 56.144464 100.661164 
L 57.206457 100.844511 
L 58.268449 101.957741 
L 59.330442 102.349736 
L 60.392434 103.487141 
L 61.454427 102.90917 
L 63.578412 102.37686 
L 64.640405 101.715171 
L 65.702397 101.350388 
L 66.76439 100.279693 
L 68.888375 101.947198 
L 69.950367 101.70826 
L 71.01236 102.691006 
L 72.074352 102.640502 
L 73.136345 102.933977 
L 74.198337 103.713389 
L 75.26033 101.259654 
L 76.322322 100.689505 
L 77.384315 102.424782 
L 78.446308 101.938525 
L 79.5083 104.70521 
L 80.570293 104.642422 
L 81.632285 103.025491 
L 82.694278 104.131935 
L 83.75627 103.385904 
L 84.818263 101.920002 
L 85.880255 102.841192 
L 86.942248 100.855699 
L 88.00424 99.61486 
L 89.066233 101.414158 
L 90.128225 100.862021 
L 91.190218 103.711466 
L 92.252211 103.375629 
L 93.314203 103.97329 
L 94.376196 103.769197 
L 95.438188 104.757626 
L 96.500181 103.672329 
L 97.562173 105.125425 
L 99.686158 101.31408 
L 100.748151 99.851135 
L 101.810143 101.006931 
L 102.872136 101.538099 
L 103.934128 102.296567 
L 104.996121 99.527659 
L 106.058114 99.688871 
L 107.120106 100.814694 
L 108.182099 100.768672 
L 109.244091 100.142398 
L 110.306084 98.922998 
L 112.430069 101.596666 
L 113.492061 101.765704 
L 114.554054 101.361437 
L 115.616046 99.331905 
L 116.678039 99.958565 
L 117.740031 99.904888 
L 118.802024 99.067107 
L 119.864016 99.934114 
L 120.926009 99.094375 
L 121.988002 99.458775 
L 123.049994 102.080887 
L 124.111987 100.985713 
L 125.173979 101.674719 
L 126.235972 100.981867 
L 127.297964 99.976477 
L 128.359957 99.966157 
L 129.421949 100.434479 
L 130.483942 99.563813 
L 131.545934 97.5614 
L 132.607927 96.813613 
L 133.669919 96.711445 
L 134.731912 97.274755 
L 135.793905 99.300272 
L 136.855897 100.353212 
L 137.91789 100.319455 
L 138.979882 102.877988 
L 140.041875 104.070555 
L 141.103867 104.507938 
L 142.16586 104.078401 
L 143.227852 102.267564 
L 144.289845 101.094943 
L 146.41383 102.238779 
L 148.537815 101.384535 
L 149.599808 100.949094 
L 150.6618 97.717276 
L 151.723793 97.160026 
L 152.785785 96.421977 
L 153.847778 93.696101 
L 154.90977 93.226813 
L 155.971763 92.470116 
L 157.033755 90.295118 
L 158.095748 90.527416 
L 159.15774 89.217693 
L 160.219733 87.023525 
L 161.281725 87.383425 
L 162.343718 84.919777 
L 163.40571 83.072814 
L 164.467703 82.518859 
L 165.529696 82.135957 
L 166.591688 79.460734 
L 167.653681 78.246255 
L 168.715673 74.304159 
L 170.839658 71.676633 
L 171.901651 69.950503 
L 172.963643 67.490896 
L 174.025636 66.329555 
L 175.087628 62.732716 
L 176.149621 62.074381 
L 181.459584 51.336393 
L 182.521576 53.437271 
L 184.645561 49.171507 
L 185.707554 47.836967 
L 186.769546 47.407796 
L 187.831539 48.399407 
L 188.893531 49.146694 
L 189.955524 46.810443 
L 191.017516 47.650182 
L 192.079509 48.825626 
L 193.141501 49.61587 
L 194.203494 49.502272 
L 195.265487 48.74629 
L 198.451464 49.303778 
L 199.513457 49.862686 
L 201.637442 52.673861 
L 202.699434 54.46523 
L 203.761427 55.567067 
L 204.823419 57.856898 
L 205.885412 59.847839 
L 206.947404 61.100109 
L 208.009397 62.119835 
L 209.07139 63.694577 
L 210.133382 64.985415 
L 211.195375 66.671701 
L 213.31936 71.21174 
L 214.381352 72.7957 
L 216.505337 73.648839 
L 217.56733 74.270499 
L 218.629322 75.437686 
L 220.753307 76.619679 
L 221.8153 77.694379 
L 225.001278 85.002678 
L 227.125263 86.512389 
L 228.187255 87.337087 
L 229.249248 90.17901 
L 230.31124 90.593386 
L 231.373233 90.044903 
L 232.435225 91.032041 
L 233.497218 92.383755 
L 234.55921 92.608173 
L 235.621203 92.604769 
L 236.683195 91.135105 
L 237.745188 91.904322 
L 238.807181 94.788944 
L 239.869173 95.835847 
L 240.931166 96.142942 
L 241.993158 97.476365 
L 243.055151 98.086206 
L 244.117143 98.146591 
L 245.179136 97.025938 
L 246.241128 95.559474 
L 247.303121 94.974482 
L 248.365113 95.015118 
L 249.427106 94.160006 
L 250.489098 94.998678 
L 251.551091 95.284958 
L 252.613084 96.269709 
L 254.737069 95.888919 
L 255.799061 96.75321 
L 257.923046 97.787711 
L 258.985039 99.232808 
L 260.047031 99.330724 
L 261.109024 100.625895 
L 262.171016 100.622586 
L 263.233009 101.591723 
L 264.295001 100.606244 
L 265.356994 99.982765 
L 266.418987 99.694972 
L 267.480979 99.993812 
L 268.542972 99.290732 
L 269.604964 97.728936 
L 270.666957 96.518713 
L 271.728949 96.835352 
L 273.852934 96.772652 
L 274.914927 96.90429 
L 275.976919 97.399696 
L 275.976919 97.399696 
" clip-path="url(#p46a73d7a30)" style="fill: none; stroke: #00838f; stroke-opacity: 0.92; stroke-width: 1.1; stroke-linecap: square"/>
   </g>
   <g id="line2d_23">
    <path d="M 149.068811 147.979703 
L 149.068811 18.955703 
" clip-path="url(#p46a73d7a30)" style="fill: none; stroke-dasharray: 3.7,1.6; stroke-dashoffset: 0; stroke: #616161"/>
   </g>
   <g id="patch_3">
    <path d="M 22.160703 147.979703 
L 22.160703 18.955703 
" style="fill: none; stroke: #000000; stroke-width: 0.8; stroke-linejoin: miter; stroke-linecap: square"/>
   </g>
   <g id="patch_4">
    <path d="M 22.160703 147.979703 
L 275.976919 147.979703 
" style="fill: none; stroke: #000000; stroke-width: 0.8; stroke-linejoin: miter; stroke-linecap: square"/>
   </g>
   <g id="patch_5">
    <path d="M 147.071671 45.835703 
Q 131.092737 45.835703 115.952329 45.835703 
" style="fill: none; opacity: 0.6; stroke: #9e9e9e; stroke-width: 0.75; stroke-linecap: round"/>
    <path d="M 120.152329 47.935703 
L 115.952329 45.835703 
L 120.152329 43.735703 
z
" style="fill: #9e9e9e; opacity: 0.6; stroke: #9e9e9e; stroke-width: 0.75; stroke-linecap: round"/>
   </g>
   <g id="patch_6">
    <path d="M 147.065733 45.835703 
Q 139.549279 45.835703 132.87135 45.835703 
" style="fill: none; opacity: 0.6; stroke: #9e9e9e; stroke-width: 0.75; stroke-linecap: round"/>
    <path d="M 137.07135 47.935703 
L 132.87135 45.835703 
L 137.07135 43.735703 
z
" style="fill: #9e9e9e; opacity: 0.6; stroke: #9e9e9e; stroke-width: 0.75; stroke-linecap: round"/>
   </g>
   <g id="patch_7">
    <path d="M 149.068811 45.835703 
Q 149.068811 45.835703 149.068811 45.835703 
" style="fill: none; opacity: 0.6; stroke: #9e9e9e; stroke-width: 0.75; stroke-linecap: round"/>
   </g>
   <g id="patch_8">
    <path d="M 151.071115 45.835703 
Q 160.702554 45.835703 169.495468 45.835703 
" style="fill: none; opacity: 0.6; stroke: #9e9e9e; stroke-width: 0.75; stroke-linecap: round"/>
    <path d="M 165.295468 43.735703 
L 169.495468 45.835703 
L 165.295468 47.935703 
z
" style="fill: #9e9e9e; opacity: 0.6; stroke: #9e9e9e; stroke-width: 0.75; stroke-linecap: round"/>
   </g>
   <g id="patch_9">
    <path d="M 151.069824 45.835703 
Q 170.219522 45.835703 188.530695 45.835703 
" style="fill: none; opacity: 0.6; stroke: #9e9e9e; stroke-width: 0.75; stroke-linecap: round"/>
    <path d="M 184.330695 43.735703 
L 188.530695 45.835703 
L 184.330695 47.935703 
z
" style="fill: #9e9e9e; opacity: 0.6; stroke: #9e9e9e; stroke-width: 0.75; stroke-linecap: round"/>
   </g>
   <g id="text_10">
    <text style="font-size: 10.5px; font-family: 'SunTimes', serif; text-anchor: middle" x="149.068811" y="8.955703" transform="rotate(-0 149.068811 8.955703)">对齐前：泄漏峰值存在时间偏移</text>
   </g>
  </g>
  <g id="axes_2">
   <g id="patch_10">
    <path d="M 331.816487 147.979703 
L 585.632703 147.979703 
L 585.632703 18.955703 
L 331.816487 18.955703 
z
" style="fill: #ffffff"/>
   </g>
   <g id="matplotlib.axis_3">
    <g id="xtick_8">
     <g id="line2d_24">
      <g>
       <use xlink:href="#m4f13616c07" x="331.816487" y="147.979703" style="stroke: #000000; stroke-width: 0.8"/>
      </g>
     </g>
     <g id="text_11">
      <text style="font-size: 10.5px; font-family: 'SunTimes', serif; text-anchor: middle" x="331.816487" y="162.280484" transform="rotate(-0 331.816487 162.280484)">-60</text>
     </g>
    </g>
    <g id="xtick_9">
     <g id="line2d_25">
      <g>
       <use xlink:href="#m4f13616c07" x="374.11919" y="147.979703" style="stroke: #000000; stroke-width: 0.8"/>
      </g>
     </g>
     <g id="text_12">
      <text style="font-size: 10.5px; font-family: 'SunTimes', serif; text-anchor: middle" x="374.11919" y="162.280484" transform="rotate(-0 374.11919 162.280484)">-40</text>
     </g>
    </g>
    <g id="xtick_10">
     <g id="line2d_26">
      <g>
       <use xlink:href="#m4f13616c07" x="416.421892" y="147.979703" style="stroke: #000000; stroke-width: 0.8"/>
      </g>
     </g>
     <g id="text_13">
      <text style="font-size: 10.5px; font-family: 'SunTimes', serif; text-anchor: middle" x="416.421892" y="162.280484" transform="rotate(-0 416.421892 162.280484)">-20</text>
     </g>
    </g>
    <g id="xtick_11">
     <g id="line2d_27">
      <g>
       <use xlink:href="#m4f13616c07" x="458.724595" y="147.979703" style="stroke: #000000; stroke-width: 0.8"/>
      </g>
     </g>
     <g id="text_14">
      <text style="font-size: 10.5px; font-family: 'SunTimes', serif; text-anchor: middle" x="458.724595" y="162.280484" transform="rotate(-0 458.724595 162.280484)">0</text>
     </g>
    </g>
    <g id="xtick_12">
     <g id="line2d_28">
      <g>
       <use xlink:href="#m4f13616c07" x="501.027298" y="147.979703" style="stroke: #000000; stroke-width: 0.8"/>
      </g>
     </g>
     <g id="text_15">
      <text style="font-size: 10.5px; font-family: 'SunTimes', serif; text-anchor: middle" x="501.027298" y="162.280484" transform="rotate(-0 501.027298 162.280484)">20</text>
     </g>
    </g>
    <g id="xtick_13">
     <g id="line2d_29">
      <g>
       <use xlink:href="#m4f13616c07" x="543.33" y="147.979703" style="stroke: #000000; stroke-width: 0.8"/>
      </g>
     </g>
     <g id="text_16">
      <text style="font-size: 10.5px; font-family: 'SunTimes', serif; text-anchor: middle" x="543.33" y="162.280484" transform="rotate(-0 543.33 162.280484)">40</text>
     </g>
    </g>
    <g id="xtick_14">
     <g id="line2d_30">
      <g>
       <use xlink:href="#m4f13616c07" x="585.632703" y="147.979703" style="stroke: #000000; stroke-width: 0.8"/>
      </g>
     </g>
     <g id="text_17">
      <text style="font-size: 10.5px; font-family: 'SunTimes', serif; text-anchor: middle" x="585.632703" y="162.280484" transform="rotate(-0 585.632703 162.280484)">60</text>
     </g>
    </g>
    <g id="text_18">
     <text style="font-size: 10.5px; font-family: 'SunTimes', serif; text-anchor: middle" x="458.724595" y="176.042203" transform="rotate(-0 458.724595 176.042203)">相对采样点</text>
    </g>
   </g>
   <g id="matplotlib.axis_4">
    <g id="ytick_6">
     <g id="line2d_31">
      <path d="M 331.816487 139.915703 
L 585.632703 139.915703 
" clip-path="url(#pfb9b17e217)" style="fill: none; stroke: #e0e0e0; stroke-opacity: 0.6; stroke-width: 0.5; stroke-linecap: square"/>
     </g>
     <g id="line2d_32">
      <g>
       <use xlink:href="#ma3348ad6f2" x="331.816487" y="139.915703" style="stroke: #000000; stroke-width: 0.8"/>
      </g>
     </g>
    </g>
    <g id="ytick_7">
     <g id="line2d_33">
      <path d="M 331.816487 113.035703 
L 585.632703 113.035703 
" clip-path="url(#pfb9b17e217)" style="fill: none; stroke: #e0e0e0; stroke-opacity: 0.6; stroke-width: 0.5; stroke-linecap: square"/>
     </g>
     <g id="line2d_34">
      <g>
       <use xlink:href="#ma3348ad6f2" x="331.816487" y="113.035703" style="stroke: #000000; stroke-width: 0.8"/>
      </g>
     </g>
    </g>
    <g id="ytick_8">
     <g id="line2d_35">
      <path d="M 331.816487 86.155703 
L 585.632703 86.155703 
" clip-path="url(#pfb9b17e217)" style="fill: none; stroke: #e0e0e0; stroke-opacity: 0.6; stroke-width: 0.5; stroke-linecap: square"/>
     </g>
     <g id="line2d_36">
      <g>
       <use xlink:href="#ma3348ad6f2" x="331.816487" y="86.155703" style="stroke: #000000; stroke-width: 0.8"/>
      </g>
     </g>
    </g>
    <g id="ytick_9">
     <g id="line2d_37">
      <path d="M 331.816487 59.275703 
L 585.632703 59.275703 
" clip-path="url(#pfb9b17e217)" style="fill: none; stroke: #e0e0e0; stroke-opacity: 0.6; stroke-width: 0.5; stroke-linecap: square"/>
     </g>
     <g id="line2d_38">
      <g>
       <use xlink:href="#ma3348ad6f2" x="331.816487" y="59.275703" style="stroke: #000000; stroke-width: 0.8"/>
      </g>
     </g>
    </g>
    <g id="ytick_10">
     <g id="line2d_39">
      <path d="M 331.816487 32.395703 
L 585.632703 32.395703 
" clip-path="url(#pfb9b17e217)" style="fill: none; stroke: #e0e0e0; stroke-opacity: 0.6; stroke-width: 0.5; stroke-linecap: square"/>
     </g>
     <g id="line2d_40">
      <g>
       <use xlink:href="#ma3348ad6f2" x="331.816487" y="32.395703" style="stroke: #000000; stroke-width: 0.8"/>
      </g>
     </g>
    </g>
   </g>
   <g id="line2d_41">
    <path d="M 331.816487 140.865157 
L 332.878479 139.963323 
L 333.940472 139.777848 
L 335.002465 140.29411 
L 336.064457 141.018484 
L 337.12645 139.770398 
L 338.188442 140.161791 
L 339.250435 140.199589 
L 341.37442 142.909596 
L 342.436412 141.828336 
L 343.498405 140.534946 
L 344.560397 140.778527 
L 345.62239 140.167877 
L 346.684382 140.896837 
L 347.746375 139.293419 
L 348.808367 138.247563 
L 349.87036 138.588757 
L 350.932353 138.425031 
L 351.994345 140.258137 
L 353.056338 139.628996 
L 354.11833 138.819022 
L 355.180323 141.100888 
L 356.242315 141.127455 
L 357.304308 139.653135 
L 358.3663 140.265893 
L 359.428293 139.456625 
L 360.490285 140.601422 
L 361.552278 140.396664 
L 362.61427 139.725506 
L 363.676263 139.875772 
L 364.738256 140.839155 
L 365.800248 140.17192 
L 366.862241 139.289727 
L 367.924233 139.230056 
L 368.986226 139.378691 
L 370.048218 139.262303 
L 371.110211 138.893436 
L 372.172203 139.543112 
L 373.234196 139.142916 
L 374.296188 139.864693 
L 375.358181 139.236687 
L 376.420173 138.28676 
L 377.482166 138.549752 
L 379.606151 138.354661 
L 380.668144 139.373241 
L 381.730136 138.943861 
L 382.792129 140.148953 
L 383.854121 142.563612 
L 384.916114 141.670835 
L 385.978106 143.819101 
L 387.040099 143.654652 
L 388.102091 142.979612 
L 389.164084 143.318445 
L 390.226076 142.338715 
L 391.288069 140.508333 
L 392.350061 140.408319 
L 393.412054 138.634817 
L 394.474047 138.716597 
L 395.536039 139.138659 
L 396.598032 138.972932 
L 397.660024 139.61982 
L 398.722017 139.623744 
L 399.784009 140.361069 
L 400.846002 139.751451 
L 402.969987 140.045383 
L 405.093972 138.742086 
L 406.155964 138.981131 
L 407.217957 138.391485 
L 408.27995 138.079259 
L 409.341942 138.05296 
L 410.403935 137.557854 
L 411.465927 137.499532 
L 412.52792 137.171039 
L 413.589912 136.964658 
L 415.713897 135.590507 
L 416.77589 135.889886 
L 417.837882 134.632869 
L 418.899875 133.198386 
L 419.961867 133.298469 
L 421.02386 131.0284 
L 423.147845 130.065751 
L 424.209838 127.211291 
L 426.333823 127.802285 
L 427.395815 126.348878 
L 428.457808 126.473917 
L 431.643785 121.995491 
L 433.76777 118.91523 
L 434.829763 116.791864 
L 436.953748 113.586494 
L 438.015741 112.994412 
L 439.077733 111.720193 
L 442.263711 102.935934 
L 443.325703 101.732606 
L 445.449688 96.820564 
L 446.511681 95.984836 
L 447.573673 95.410167 
L 448.635666 92.971066 
L 449.697658 93.524792 
L 450.759651 91.691854 
L 451.821644 91.313594 
L 452.883636 89.564927 
L 453.945629 87.329841 
L 455.007621 85.571621 
L 456.069614 84.774336 
L 457.131606 83.068464 
L 458.193599 82.722419 
L 459.255591 82.134011 
L 460.317584 81.888898 
L 463.503561 83.287219 
L 464.565554 85.005684 
L 465.627547 85.756681 
L 466.689539 86.760362 
L 467.751532 88.573465 
L 468.813524 90.934363 
L 469.875517 91.709569 
L 470.937509 94.13562 
L 473.061494 95.662922 
L 474.123487 98.291978 
L 476.247472 100.896707 
L 477.309464 103.114115 
L 478.371457 104.442964 
L 480.495442 110.162122 
L 481.557435 111.01858 
L 482.619427 113.128118 
L 484.743412 116.079959 
L 485.805405 117.958974 
L 486.867397 118.546809 
L 487.92939 118.807471 
L 488.991382 120.425442 
L 490.053375 121.676539 
L 491.115367 122.218862 
L 492.17736 123.25994 
L 493.239352 123.975229 
L 495.363338 124.478367 
L 496.42533 125.802434 
L 497.487323 126.129011 
L 498.549315 127.088407 
L 499.611308 128.42358 
L 500.6733 130.058105 
L 501.735293 132.821208 
L 502.797285 134.416507 
L 503.859278 134.139999 
L 504.92127 134.465527 
L 505.983263 134.919399 
L 507.045255 134.242381 
L 508.107248 132.93945 
L 509.16924 132.370045 
L 510.231233 132.872606 
L 511.293226 132.102863 
L 512.355218 133.073707 
L 513.417211 132.136187 
L 514.479203 131.614293 
L 515.541196 132.791025 
L 517.665181 132.227264 
L 518.727173 134.055874 
L 519.789166 132.503136 
L 520.851158 135.10747 
L 521.913151 136.641382 
L 522.975143 136.879291 
L 524.037136 135.925589 
L 526.161121 136.665549 
L 527.223114 137.808189 
L 528.285106 136.492919 
L 529.347099 135.845257 
L 530.409091 136.881227 
L 531.471084 137.67594 
L 532.533076 137.222673 
L 533.595069 136.890601 
L 534.657061 137.939355 
L 535.719054 138.674528 
L 536.781046 138.942447 
L 537.843039 137.48375 
L 538.905032 138.513264 
L 539.967024 138.743906 
L 541.029017 137.639572 
L 542.091009 137.35129 
L 543.153002 136.301475 
L 544.214994 137.302448 
L 545.276987 138.10343 
L 546.338979 137.959811 
L 547.400972 138.390167 
L 548.462964 140.532529 
L 549.524957 141.05542 
L 550.586949 143.300547 
L 551.648942 142.701763 
L 553.772927 140.78522 
L 554.83492 142.225209 
L 555.896912 140.941557 
L 556.958905 141.047303 
L 558.020897 140.453592 
L 559.08289 141.224824 
L 560.144882 142.837592 
L 562.268867 142.201777 
L 563.33086 142.864443 
L 564.392852 142.249694 
L 565.454845 141.388379 
L 566.516837 141.027878 
L 567.57883 140.971868 
L 568.640823 142.105578 
L 570.764808 139.975975 
L 571.8268 139.983838 
L 572.888793 139.42947 
L 573.950785 140.343799 
L 575.012778 138.791377 
L 576.07477 138.413164 
L 577.136763 138.382151 
L 578.198755 138.532475 
L 579.260748 137.815472 
L 580.32274 137.877968 
L 581.384733 137.632748 
L 582.446726 137.756105 
L 583.508718 138.280169 
L 585.632703 138.760524 
L 585.632703 138.760524 
" clip-path="url(#pfb9b17e217)" style="fill: none; stroke: #1565c0; stroke-opacity: 0.92; stroke-width: 1.1; stroke-linecap: square"/>
   </g>
   <g id="line2d_42">
    <path d="M 331.816487 129.75787 
L 332.878479 130.441898 
L 333.940472 130.178183 
L 335.002465 129.503956 
L 337.12645 131.504503 
L 339.250435 130.708987 
L 340.312427 128.918599 
L 342.436412 128.687345 
L 343.498405 128.182804 
L 344.560397 126.831464 
L 345.62239 127.008973 
L 346.684382 126.531788 
L 347.746375 127.141647 
L 348.808367 127.356472 
L 349.87036 127.228546 
L 350.932353 126.832892 
L 351.994345 128.09415 
L 353.056338 128.651355 
L 354.11833 128.72259 
L 355.180323 129.139922 
L 356.242315 130.456229 
L 357.304308 130.617155 
L 358.3663 131.140659 
L 360.490285 131.393084 
L 361.552278 131.059302 
L 362.61427 132.422177 
L 363.676263 132.143459 
L 364.738256 131.341116 
L 366.862241 128.562166 
L 367.924233 128.513377 
L 368.986226 128.227605 
L 370.048218 127.047287 
L 371.110211 126.459528 
L 372.172203 129.093348 
L 373.234196 129.971898 
L 376.420173 133.815554 
L 377.482166 133.874351 
L 378.544159 134.3205 
L 379.606151 132.722197 
L 380.668144 132.875275 
L 381.730136 132.517344 
L 382.792129 130.393841 
L 383.854121 129.562606 
L 384.916114 130.229577 
L 385.978106 129.080159 
L 388.102091 130.729528 
L 389.164084 131.046706 
L 390.226076 131.491239 
L 391.288069 131.462769 
L 392.350061 131.614179 
L 393.412054 132.01724 
L 394.474047 131.013035 
L 395.536039 130.380978 
L 396.598032 130.217426 
L 398.722017 130.536737 
L 399.784009 128.780366 
L 400.846002 128.653509 
L 401.907994 130.023784 
L 402.969987 130.190639 
L 404.031979 129.969389 
L 405.093972 131.165124 
L 406.155964 131.161184 
L 407.217957 131.675073 
L 408.27995 131.303553 
L 409.341942 130.58043 
L 410.403935 129.680406 
L 411.465927 130.06068 
L 413.589912 128.155257 
L 414.651905 128.234615 
L 415.713897 127.955524 
L 417.837882 125.119411 
L 418.899875 123.218207 
L 419.961867 122.529199 
L 421.02386 123.429812 
L 422.085853 122.548627 
L 423.147845 122.277511 
L 424.209838 122.173849 
L 425.27183 122.446781 
L 426.333823 122.442912 
L 427.395815 122.132142 
L 428.457808 119.819904 
L 430.581793 114.494912 
L 431.643785 112.686958 
L 432.705778 110.613897 
L 433.76777 109.492488 
L 434.829763 107.042626 
L 435.891755 104.204926 
L 436.953748 103.486527 
L 439.077733 100.609746 
L 440.139726 98.912597 
L 442.263711 93.633668 
L 443.325703 93.917358 
L 444.387696 92.521193 
L 445.449688 90.265646 
L 446.511681 88.693649 
L 447.573673 86.705652 
L 448.635666 85.779797 
L 449.697658 85.559899 
L 450.759651 84.124444 
L 451.821644 83.759345 
L 452.883636 85.235014 
L 453.945629 84.535328 
L 455.007621 85.031232 
L 456.069614 85.248078 
L 457.131606 84.5597 
L 458.193599 84.154777 
L 460.317584 81.388802 
L 461.379576 81.331397 
L 462.441569 80.613689 
L 463.503561 80.23434 
L 464.565554 80.265886 
L 465.627547 81.349472 
L 466.689539 83.049771 
L 468.813524 85.994968 
L 469.875517 86.793458 
L 473.061494 89.913542 
L 474.123487 90.745701 
L 475.185479 91.291149 
L 477.309464 94.929076 
L 478.371457 97.776214 
L 479.433449 99.386568 
L 480.495442 100.170633 
L 481.557435 101.275234 
L 483.68142 104.943185 
L 484.743412 107.257735 
L 485.805405 106.593358 
L 486.867397 107.496178 
L 488.991382 111.82042 
L 490.053375 113.136801 
L 491.115367 113.258369 
L 492.17736 114.054091 
L 493.239352 116.350052 
L 494.301345 117.610896 
L 495.363338 117.42257 
L 496.42533 117.627407 
L 498.549315 118.593027 
L 499.611308 117.341691 
L 500.6733 116.967206 
L 501.735293 116.739279 
L 502.797285 118.716913 
L 504.92127 120.457107 
L 505.983263 121.332895 
L 507.045255 124.683246 
L 508.107248 125.654391 
L 509.16924 125.835166 
L 510.231233 124.833491 
L 512.355218 123.934327 
L 513.417211 123.828477 
L 514.479203 122.032987 
L 515.541196 122.00425 
L 516.603188 122.83595 
L 517.665181 123.984089 
L 520.851158 125.70149 
L 521.913151 127.318932 
L 522.975143 128.61234 
L 524.037136 128.995468 
L 525.099129 128.446884 
L 526.161121 128.132944 
L 527.223114 128.230858 
L 528.285106 126.748349 
L 529.347099 126.06742 
L 530.409091 124.698998 
L 532.533076 125.112261 
L 533.595069 126.108544 
L 534.657061 126.20717 
L 535.719054 127.508799 
L 536.781046 128.472836 
L 537.843039 129.020032 
L 538.905032 130.020766 
L 539.967024 130.094358 
L 541.029017 129.223468 
L 542.091009 129.256896 
L 543.153002 130.220819 
L 544.214994 130.573576 
L 545.276987 132.260955 
L 546.338979 131.889698 
L 547.400972 132.090393 
L 548.462964 133.972653 
L 549.524957 134.878461 
L 550.586949 135.196108 
L 551.648942 134.731224 
L 552.710934 132.546354 
L 553.772927 132.268577 
L 554.83492 131.284613 
L 555.896912 129.744962 
L 556.958905 129.653322 
L 558.020897 127.59449 
L 559.08289 126.656707 
L 560.144882 128.464067 
L 561.206875 128.782571 
L 562.268867 130.254763 
L 563.33086 130.828195 
L 564.392852 130.357001 
L 566.516837 131.034893 
L 568.640823 129.37888 
L 569.702815 129.102107 
L 570.764808 128.575053 
L 571.8268 128.902098 
L 572.888793 128.817428 
L 575.012778 129.093098 
L 576.07477 130.43735 
L 577.136763 130.177429 
L 578.198755 130.878137 
L 579.260748 129.905948 
L 580.32274 130.300695 
L 582.446726 130.041545 
L 583.508718 129.256217 
L 584.570711 129.335489 
L 585.632703 129.030044 
L 585.632703 129.030044 
" clip-path="url(#pfb9b17e217)" style="fill: none; stroke: #2e7d32; stroke-opacity: 0.92; stroke-width: 1.1; stroke-linecap: square"/>
   </g>
   <g id="line2d_43">
    <path d="M 331.816487 122.822654 
L 332.878479 122.771794 
L 333.940472 121.451443 
L 335.002465 120.777773 
L 336.064457 121.060443 
L 337.12645 120.633213 
L 338.188442 119.561397 
L 339.250435 118.806735 
L 340.312427 118.985401 
L 341.37442 119.438907 
L 342.436412 121.149284 
L 343.498405 120.552788 
L 344.560397 120.616713 
L 345.62239 121.186189 
L 346.684382 121.555311 
L 348.808367 121.548157 
L 349.87036 120.948493 
L 350.932353 120.70798 
L 351.994345 120.836112 
L 353.056338 119.19006 
L 354.11833 118.978035 
L 355.180323 117.473465 
L 356.242315 117.792491 
L 357.304308 117.504745 
L 358.3663 117.34955 
L 359.428293 116.869449 
L 360.490285 118.479485 
L 361.552278 118.4809 
L 362.61427 120.74987 
L 363.676263 122.036031 
L 364.738256 121.283938 
L 365.800248 122.21271 
L 366.862241 122.812891 
L 367.924233 121.799921 
L 368.986226 122.094003 
L 371.110211 120.123862 
L 372.172203 120.153572 
L 373.234196 121.925056 
L 374.296188 121.12124 
L 375.358181 120.532805 
L 376.420173 119.209406 
L 377.482166 118.847351 
L 378.544159 119.009321 
L 379.606151 119.641491 
L 380.668144 119.25634 
L 381.730136 120.056764 
L 382.792129 121.153915 
L 384.916114 124.535438 
L 385.978106 124.997856 
L 387.040099 125.948478 
L 388.102091 124.808865 
L 389.164084 125.307581 
L 391.288069 124.473592 
L 392.350061 123.903704 
L 393.412054 123.600121 
L 394.474047 122.877891 
L 395.536039 122.637805 
L 396.598032 121.756398 
L 397.660024 122.008636 
L 399.784009 121.745888 
L 400.846002 121.319661 
L 401.907994 121.221824 
L 402.969987 122.698533 
L 405.093972 122.660537 
L 406.155964 121.663863 
L 408.27995 118.59154 
L 409.341942 118.478362 
L 410.403935 116.352541 
L 411.465927 115.438752 
L 412.52792 116.040286 
L 413.589912 117.468961 
L 414.651905 119.331839 
L 415.713897 120.408508 
L 416.77589 119.984222 
L 417.837882 119.115513 
L 418.899875 119.234204 
L 421.02386 114.196381 
L 422.085853 110.739333 
L 423.147845 111.316309 
L 424.209838 109.331821 
L 425.27183 109.309303 
L 426.333823 107.682835 
L 427.395815 106.933317 
L 428.457808 106.41223 
L 429.5198 107.002961 
L 430.581793 103.132952 
L 431.643785 101.844042 
L 433.76777 96.800966 
L 434.829763 93.669991 
L 435.891755 91.148255 
L 436.953748 89.017697 
L 438.015741 87.82572 
L 439.077733 85.360704 
L 440.139726 84.302801 
L 441.201718 83.636065 
L 442.263711 84.561786 
L 443.325703 82.632649 
L 444.387696 80.220977 
L 446.511681 77.098269 
L 447.573673 74.970296 
L 448.635666 72.461223 
L 449.697658 67.767462 
L 450.759651 65.710823 
L 452.883636 62.750797 
L 453.945629 62.460242 
L 455.007621 61.562537 
L 456.069614 61.851914 
L 457.131606 63.147405 
L 458.193599 64.666554 
L 459.255591 64.010754 
L 460.317584 63.01923 
L 461.379576 63.412885 
L 462.441569 64.634715 
L 463.503561 65.366412 
L 464.565554 65.857872 
L 465.627547 65.350815 
L 466.689539 66.513039 
L 467.751532 70.215558 
L 468.813524 70.300765 
L 469.875517 71.253985 
L 470.937509 71.45085 
L 471.999502 72.271035 
L 473.061494 74.601605 
L 474.123487 76.632735 
L 475.185479 77.354914 
L 476.247472 80.233141 
L 477.309464 80.931148 
L 479.433449 85.963899 
L 481.557435 88.2416 
L 482.619427 88.355496 
L 483.68142 89.349163 
L 484.743412 91.217286 
L 485.805405 91.442626 
L 486.867397 93.061375 
L 487.92939 95.461212 
L 488.991382 96.575936 
L 490.053375 98.900106 
L 491.115367 99.416839 
L 492.17736 102.881809 
L 493.239352 103.973825 
L 494.301345 104.805236 
L 495.363338 104.945715 
L 496.42533 106.082641 
L 497.487323 106.173034 
L 498.549315 107.305984 
L 499.611308 105.565332 
L 500.6733 107.638536 
L 502.797285 110.897125 
L 503.859278 111.131854 
L 505.983263 113.768585 
L 507.045255 114.655296 
L 508.107248 113.968534 
L 509.16924 114.289701 
L 510.231233 113.503857 
L 511.293226 113.728467 
L 512.355218 114.218645 
L 513.417211 112.774288 
L 514.479203 112.512705 
L 515.541196 113.538628 
L 516.603188 112.716799 
L 517.665181 113.016651 
L 518.727173 114.137976 
L 519.789166 114.161695 
L 520.851158 115.876958 
L 521.913151 116.580451 
L 522.975143 116.976571 
L 524.037136 117.788378 
L 525.099129 117.288111 
L 526.161121 117.642894 
L 527.223114 116.290228 
L 528.285106 115.926261 
L 529.347099 116.426503 
L 530.409091 116.254043 
L 531.471084 116.592429 
L 532.533076 117.19407 
L 533.595069 117.285991 
L 534.657061 118.872679 
L 535.719054 118.90804 
L 537.843039 119.433716 
L 538.905032 119.563127 
L 539.967024 119.978786 
L 541.029017 120.120049 
L 542.091009 120.127097 
L 543.153002 120.26757 
L 545.276987 118.383444 
L 546.338979 118.735724 
L 547.400972 118.405178 
L 549.524957 118.502537 
L 550.586949 119.868618 
L 551.648942 119.445354 
L 552.710934 121.058502 
L 553.772927 120.579561 
L 554.83492 120.657027 
L 555.896912 120.609583 
L 556.958905 121.071454 
L 558.020897 119.786765 
L 559.08289 119.995612 
L 560.144882 119.468138 
L 561.206875 119.185415 
L 562.268867 120.556801 
L 563.33086 120.708333 
L 564.392852 119.968087 
L 565.454845 120.42997 
L 566.516837 122.175828 
L 568.640823 122.633551 
L 569.702815 121.676686 
L 570.764808 121.389764 
L 573.950785 121.570022 
L 575.012778 120.473369 
L 576.07477 119.875894 
L 579.260748 119.537183 
L 580.32274 117.672884 
L 581.384733 116.425389 
L 583.508718 117.505267 
L 584.570711 117.56275 
L 585.632703 117.821982 
L 585.632703 117.821982 
" clip-path="url(#pfb9b17e217)" style="fill: none; stroke: #6a1b9a; stroke-opacity: 0.92; stroke-width: 1.1; stroke-linecap: square"/>
   </g>
   <g id="line2d_44">
    <path d="M 331.816487 112.459322 
L 332.878479 112.637288 
L 333.940472 112.482312 
L 335.002465 112.675384 
L 336.064457 111.26848 
L 337.12645 111.166589 
L 338.188442 109.97967 
L 339.250435 108.086619 
L 340.312427 108.202065 
L 341.37442 108.746782 
L 342.436412 108.005884 
L 343.498405 108.050536 
L 344.560397 107.293076 
L 345.62239 107.853233 
L 346.684382 110.337535 
L 347.746375 110.450935 
L 348.808367 109.702255 
L 351.994345 110.810857 
L 353.056338 112.262365 
L 354.11833 111.673317 
L 355.180323 110.328963 
L 356.242315 111.002211 
L 357.304308 110.580923 
L 358.3663 111.049171 
L 359.428293 110.387351 
L 360.490285 108.524702 
L 361.552278 108.843337 
L 362.61427 109.387035 
L 363.676263 110.241847 
L 364.738256 111.545544 
L 365.800248 111.299297 
L 366.862241 111.509653 
L 367.924233 112.456081 
L 368.986226 111.782665 
L 370.048218 111.796896 
L 372.172203 109.482716 
L 373.234196 108.794399 
L 374.296188 109.339776 
L 377.482166 111.753627 
L 378.544159 113.016315 
L 379.606151 113.002441 
L 380.668144 112.807274 
L 381.730136 113.045426 
L 382.792129 112.955548 
L 383.854121 111.149384 
L 384.916114 110.838077 
L 385.978106 109.523036 
L 387.040099 109.444325 
L 388.102091 110.263263 
L 389.164084 109.878197 
L 390.226076 108.834817 
L 391.288069 110.020934 
L 392.350061 110.214606 
L 393.412054 111.025919 
L 394.474047 111.342783 
L 395.536039 111.999704 
L 396.598032 112.282238 
L 397.660024 111.347789 
L 398.722017 111.61609 
L 399.784009 109.994017 
L 400.846002 108.767745 
L 401.907994 108.016406 
L 402.969987 106.986378 
L 404.031979 107.62368 
L 405.093972 108.832628 
L 406.155964 109.161368 
L 407.217957 110.726574 
L 408.27995 110.059394 
L 410.403935 111.469317 
L 411.465927 110.17222 
L 412.52792 109.821296 
L 414.651905 106.790055 
L 415.713897 108.062166 
L 416.77589 108.090628 
L 417.837882 107.965542 
L 418.899875 106.574451 
L 419.961867 104.493876 
L 421.02386 104.465519 
L 422.085853 104.570921 
L 424.209838 101.984596 
L 425.27183 100.271893 
L 426.333823 99.927037 
L 427.395815 99.935034 
L 428.457808 97.90348 
L 429.5198 96.681333 
L 430.581793 94.746799 
L 431.643785 93.795411 
L 432.705778 92.425086 
L 433.76777 90.201601 
L 434.829763 89.63272 
L 435.891755 89.360191 
L 438.015741 86.805608 
L 439.077733 83.856929 
L 441.201718 79.652307 
L 444.387696 70.279558 
L 445.449688 68.557529 
L 446.511681 68.845048 
L 447.573673 66.789855 
L 448.635666 66.187773 
L 450.759651 61.995546 
L 451.821644 61.528863 
L 452.883636 60.640821 
L 453.945629 56.982763 
L 455.007621 56.403109 
L 456.069614 54.415034 
L 457.131606 55.306787 
L 458.193599 56.431324 
L 459.255591 55.767099 
L 460.317584 55.484347 
L 461.379576 56.863356 
L 462.441569 56.336111 
L 463.503561 58.244537 
L 464.565554 58.910177 
L 465.627547 59.237763 
L 466.689539 61.287502 
L 468.813524 63.655223 
L 469.875517 65.937556 
L 470.937509 67.43725 
L 471.999502 70.220408 
L 473.061494 71.701122 
L 474.123487 70.711659 
L 476.247472 73.876375 
L 477.309464 75.533708 
L 478.371457 76.458141 
L 479.433449 75.669823 
L 480.495442 77.398985 
L 481.557435 80.527634 
L 482.619427 82.149485 
L 483.68142 84.123664 
L 484.743412 84.990494 
L 486.867397 89.017009 
L 487.92939 88.89029 
L 488.991382 90.424293 
L 490.053375 92.391419 
L 491.115367 92.237872 
L 492.17736 94.607369 
L 493.239352 95.95958 
L 494.301345 96.360376 
L 495.363338 98.783037 
L 496.42533 99.692768 
L 497.487323 99.599289 
L 498.549315 99.931262 
L 499.611308 99.910436 
L 500.6733 99.491407 
L 501.735293 101.225339 
L 502.797285 100.398586 
L 503.859278 100.269721 
L 504.92127 99.921301 
L 505.983263 101.23116 
L 507.045255 101.274802 
L 508.107248 101.203524 
L 509.16924 100.792777 
L 510.231233 102.639715 
L 511.293226 103.48058 
L 512.355218 104.807749 
L 513.417211 104.915231 
L 514.479203 106.23964 
L 515.541196 107.183357 
L 516.603188 107.004073 
L 517.665181 105.959647 
L 518.727173 105.761214 
L 519.789166 105.343631 
L 520.851158 105.113836 
L 521.913151 104.065578 
L 522.975143 103.920444 
L 525.099129 106.452898 
L 526.161121 108.016458 
L 527.223114 107.943043 
L 528.285106 108.113366 
L 529.347099 107.650601 
L 530.409091 109.217619 
L 531.471084 107.67359 
L 533.595069 108.226153 
L 534.657061 108.156741 
L 535.719054 108.801784 
L 536.781046 110.98568 
L 537.843039 111.219637 
L 538.905032 112.932714 
L 539.967024 113.570734 
L 542.091009 111.851459 
L 543.153002 110.654294 
L 544.214994 110.522757 
L 545.276987 109.49157 
L 546.338979 109.183373 
L 547.400972 109.453862 
L 548.462964 110.276047 
L 550.586949 114.749989 
L 551.648942 113.366685 
L 552.710934 114.353012 
L 553.772927 114.691778 
L 554.83492 112.718961 
L 555.896912 112.2773 
L 556.958905 111.644633 
L 558.020897 110.808291 
L 559.08289 111.438138 
L 560.144882 110.444699 
L 561.206875 110.808824 
L 562.268867 110.475073 
L 563.33086 111.101451 
L 564.392852 110.985222 
L 565.454845 111.267557 
L 566.516837 110.820633 
L 567.57883 110.74551 
L 568.640823 110.369176 
L 569.702815 112.482239 
L 570.764808 110.880306 
L 572.888793 112.359703 
L 573.950785 113.370052 
L 575.012778 113.445934 
L 576.07477 113.65451 
L 577.136763 111.754115 
L 578.198755 112.40637 
L 579.260748 112.247516 
L 580.32274 111.08341 
L 581.384733 110.367615 
L 582.446726 110.384765 
L 583.508718 109.85341 
L 584.570711 110.821567 
L 585.632703 110.802314 
L 585.632703 110.802314 
" clip-path="url(#pfb9b17e217)" style="fill: none; stroke: #ef6c00; stroke-opacity: 0.92; stroke-width: 1.1; stroke-linecap: square"/>
   </g>
   <g id="line2d_45">
    <path d="M 331.816487 100.531842 
L 332.878479 100.12999 
L 333.940472 100.749257 
L 335.002465 101.591222 
L 336.064457 104.365887 
L 337.12645 103.180523 
L 338.188442 104.427435 
L 339.250435 104.241792 
L 340.312427 104.426876 
L 341.37442 103.761888 
L 342.436412 103.339341 
L 343.498405 100.546679 
L 344.560397 101.425446 
L 345.62239 101.366065 
L 346.684382 101.568268 
L 347.746375 101.480623 
L 348.808367 101.769988 
L 349.87036 100.592312 
L 350.932353 101.189541 
L 351.994345 100.809181 
L 353.056338 100.680712 
L 354.11833 99.83073 
L 355.180323 99.612629 
L 356.242315 98.567299 
L 358.3663 99.676793 
L 359.428293 99.448662 
L 360.490285 97.858373 
L 361.552278 98.529756 
L 362.61427 98.99976 
L 363.676263 100.386011 
L 364.738256 101.391567 
L 365.800248 100.715812 
L 366.862241 100.880792 
L 367.924233 101.882659 
L 368.986226 102.235399 
L 370.048218 103.258991 
L 371.110211 102.738722 
L 373.234196 102.259349 
L 374.296188 101.663612 
L 375.358181 101.335024 
L 376.420173 100.371031 
L 378.544159 101.870697 
L 379.606151 101.654865 
L 380.668144 102.538329 
L 381.730136 102.491593 
L 382.792129 102.754089 
L 383.854121 103.453496 
L 384.916114 101.242533 
L 385.978106 100.72613 
L 387.040099 102.283789 
L 388.102091 101.841057 
L 389.164084 104.324737 
L 390.226076 104.260387 
L 391.288069 102.795479 
L 392.350061 103.7794 
L 393.412054 103.093434 
L 394.474047 101.756396 
L 395.536039 102.563935 
L 396.598032 100.750933 
L 397.660024 99.602763 
L 398.722017 101.184399 
L 399.784009 100.642329 
L 400.846002 103.153017 
L 401.907994 102.786867 
L 402.969987 103.249178 
L 404.031979 102.976432 
L 405.093972 103.761476 
L 406.155964 102.662471 
L 407.217957 103.827883 
L 409.341942 100.0416 
L 410.403935 98.505212 
L 411.465927 99.293486 
L 412.52792 99.48382 
L 413.589912 99.83918 
L 414.651905 96.97642 
L 415.713897 96.703212 
L 416.77589 97.246417 
L 417.837882 96.678999 
L 418.899875 95.529162 
L 419.961867 93.781162 
L 422.085853 94.677464 
L 423.147845 93.962838 
L 424.209838 92.653458 
L 425.27183 89.799952 
L 426.333823 89.253614 
L 427.395815 88.010243 
L 428.457808 85.97592 
L 429.5198 85.391011 
L 430.581793 83.186486 
L 431.643785 81.984559 
L 432.705778 82.73701 
L 433.76777 80.07111 
L 434.829763 78.944201 
L 435.891755 76.514152 
L 436.953748 73.751948 
L 438.015741 71.844306 
L 439.077733 70.33756 
L 440.139726 67.608145 
L 441.201718 63.855984 
L 442.263711 61.243215 
L 443.325703 59.237005 
L 444.387696 57.871214 
L 445.449688 57.879442 
L 446.511681 57.087282 
L 447.573673 55.409092 
L 448.635666 56.17298 
L 449.697658 55.833266 
L 450.759651 54.955924 
L 451.821644 53.45596 
L 452.883636 50.885089 
L 453.945629 49.074417 
L 455.007621 49.033571 
L 456.069614 49.198164 
L 457.131606 48.636816 
L 458.193599 48.393819 
L 459.255591 48.327829 
L 460.317584 45.979732 
L 462.441569 46.64377 
L 463.503561 45.457235 
L 465.627547 47.570233 
L 466.689539 47.548469 
L 467.751532 49.899472 
L 468.813524 51.057725 
L 469.875517 51.60246 
L 470.937509 54.614429 
L 471.999502 55.238689 
L 473.061494 56.555332 
L 475.185479 62.013366 
L 476.247472 62.891926 
L 477.309464 65.150748 
L 478.371457 65.001272 
L 480.495442 69.496195 
L 481.557435 71.365643 
L 482.619427 72.54513 
L 483.68142 74.844707 
L 484.743412 74.885944 
L 485.805405 77.487995 
L 487.92939 79.762746 
L 491.115367 81.984331 
L 492.17736 86.247848 
L 493.239352 86.579714 
L 494.301345 86.605726 
L 495.363338 87.213021 
L 496.42533 88.43367 
L 497.487323 90.727546 
L 498.549315 92.593733 
L 499.611308 91.476311 
L 501.735293 94.641077 
L 502.797285 95.725335 
L 503.859278 95.801887 
L 504.92127 95.113506 
L 507.045255 95.00281 
L 508.107248 94.565204 
L 509.16924 94.413498 
L 510.231233 94.947001 
L 511.293226 95.253621 
L 512.355218 95.858335 
L 513.417211 95.753099 
L 514.479203 96.64206 
L 515.541196 97.201273 
L 516.603188 97.04889 
L 517.665181 96.653921 
L 518.727173 96.738056 
L 519.789166 96.558412 
L 520.851158 96.737689 
L 521.913151 97.545289 
L 522.975143 98.196325 
L 524.037136 98.350398 
L 526.161121 96.6952 
L 527.223114 96.114015 
L 528.285106 96.076428 
L 530.409091 95.131908 
L 531.471084 95.18144 
L 533.595069 97.934322 
L 534.657061 99.349387 
L 536.781046 99.372637 
L 537.843039 99.521072 
L 538.905032 101.530231 
L 539.967024 101.39649 
L 541.029017 100.434631 
L 542.091009 100.889804 
L 543.153002 101.704611 
L 544.214994 101.533003 
L 545.276987 101.181269 
L 546.338979 99.531759 
L 547.400972 99.91625 
L 548.462964 102.220999 
L 549.524957 102.88583 
L 550.586949 102.896757 
L 551.648942 103.841462 
L 552.710934 104.143447 
L 553.772927 103.958095 
L 554.83492 102.715901 
L 555.896912 101.167708 
L 556.958905 100.417424 
L 558.020897 100.234327 
L 559.08289 99.248889 
L 560.144882 99.791542 
L 561.206875 99.840709 
L 562.268867 100.522251 
L 564.392852 99.782054 
L 565.454845 100.367669 
L 567.57883 100.928729 
L 568.640823 102.052207 
L 569.702815 101.968893 
L 570.764808 102.969066 
L 571.8268 102.806824 
L 572.888793 103.526223 
L 573.950785 102.493093 
L 575.012778 101.792532 
L 576.07477 101.400955 
L 577.136763 101.54427 
L 578.198755 100.792789 
L 579.260748 99.275365 
L 580.32274 98.081185 
L 581.384733 98.2679 
L 583.508718 98.034499 
L 584.570711 98.073885 
L 585.632703 98.446635 
L 585.632703 98.446635 
" clip-path="url(#pfb9b17e217)" style="fill: none; stroke: #00838f; stroke-opacity: 0.92; stroke-width: 1.1; stroke-linecap: square"/>
   </g>
   <g id="line2d_46">
    <path d="M 458.724595 147.979703 
L 458.724595 18.955703 
" clip-path="url(#pfb9b17e217)" style="fill: none; stroke-dasharray: 3.7,1.6; stroke-dashoffset: 0; stroke: #616161"/>
   </g>
   <g id="patch_11">
    <path d="M 331.816487 147.979703 
L 331.816487 18.955703 
" style="fill: none; stroke: #000000; stroke-width: 0.8; stroke-linejoin: miter; stroke-linecap: square"/>
   </g>
   <g id="patch_12">
    <path d="M 331.816487 147.979703 
L 585.632703 147.979703 
" style="fill: none; stroke: #000000; stroke-width: 0.8; stroke-linejoin: miter; stroke-linecap: square"/>
   </g>
   <g id="text_19">
    <text style="font-size: 10.5px; font-family: 'SunTimes', serif; text-anchor: middle" x="458.724595" y="8.955703" transform="rotate(-0 458.724595 8.955703)">对齐后：相同操作的峰值集中</text>
   </g>
   <g id="patch_13">
    <path d="M 509.368577 69.155966 
Q 485.03109 64.924602 461.905263 60.9039 
" style="fill: none; stroke: #e53935; stroke-width: 1.1; stroke-linecap: round"/>
    <path d="M 465.683474 63.692291 
L 461.905263 60.9039 
L 466.402902 59.554366 
" style="fill: none; stroke: #e53935; stroke-width: 1.1; stroke-linecap: round"/>
   </g>
   <g id="text_20">
    <g id="patch_14">
     <path d="M 509.487838 83.459762 
L 593.487838 83.459762 
Q 595.587838 83.459762 595.587838 81.359762 
L 595.587838 71.598044 
Q 595.587838 69.498044 593.487838 69.498044 
L 509.487838 69.498044 
Q 507.387838 69.498044 507.387838 71.598044 
L 507.387838 81.359762 
Q 507.387838 83.459762 509.487838 83.459762 
z
" style="fill: #ffffff; opacity: 0.85"/>
    </g>
    <text style="font-size: 10.5px; font-family: 'SunTimes', serif; text-anchor: start; fill: #e53935" x="509.487838" y="79.113747" transform="rotate(-0 509.487838 79.113747)">目标泄漏位置重合</text>
   </g>
  </g>
 </g>
 <defs>
  <clipPath id="p46a73d7a30">
   <rect x="22.160703" y="18.955703" width="253.816216" height="129.024"/>
  </clipPath>
  <clipPath id="pfb9b17e217">
   <rect x="331.816487" y="18.955703" width="253.816216" height="129.024"/>
  </clipPath>
 </defs>
</svg>
